<svg width="17" height="22" viewBox="0 0 17 22" fill="none" xmlns="http://www.w3.org/2000/svg">
<path d="M14.69 11.94L11.45 10.32C12.74 9.32 13.57 7.76 13.57 6C13.57 2.97 11.1 0.5 8.07 0.5C5.04 0.5 2.57 2.97 2.57 6C2.57 8.13 3.79 9.98 5.57 10.89V14.15C3.42 13.69 3.55 13.71 3.31 13.71C2.78 13.71 2.28 13.92 1.9 14.3L0.5 15.72L5.59 20.81C6.02 21.25 6.62 21.5 7.24 21.5H13.54C14.52 21.5 15.35 20.8 15.51 19.83L16.31 15.12C16.53 13.82 15.88 12.54 14.69 11.94ZM14.34 14.79L13.54 19.5H7.24C7.15 19.5 7.07 19.46 7 19.4L3.32 15.72L7.57 16.61V6C7.57 5.72 7.79 5.5 8.07 5.5C8.35 5.5 8.57 5.72 8.57 6V12H10.33L13.79 13.73C14.19 13.93 14.41 14.36 14.34 14.79ZM4.57 6C4.57 4.07 6.14 2.5 8.07 2.5C10 2.5 11.57 4.07 11.57 6C11.57 6.95 11.19 7.81 10.57 8.44V6C10.57 4.62 9.45 3.5 8.07 3.5C6.69 3.5 5.57 4.62 5.57 6V8.44C4.95 7.81 4.57 6.95 4.57 6Z" fill="#CC5EFF"/>
</svg>
