<svg width="25" height="25" viewBox="0 0 25 25" fill="none" xmlns="http://www.w3.org/2000/svg">
<path d="M10.5 5.5C10.3022 5.5 10.1089 5.55865 9.94443 5.66853C9.77998 5.77841 9.65181 5.93459 9.57612 6.11732C9.50043 6.30004 9.48063 6.50111 9.51921 6.69509C9.5578 6.88907 9.65304 7.06725 9.79289 7.20711C9.93275 7.34696 10.1109 7.4422 10.3049 7.48079C10.4989 7.51937 10.7 7.49957 10.8827 7.42388C11.0654 7.34819 11.2216 7.22002 11.3315 7.05557C11.4414 6.89112 11.5 6.69778 11.5 6.5C11.5 6.23478 11.3946 5.98043 11.2071 5.79289C11.0196 5.60536 10.7652 5.5 10.5 5.5ZM6.5 5.5C6.30222 5.5 6.10888 5.55865 5.94443 5.66853C5.77998 5.77841 5.65181 5.93459 5.57612 6.11732C5.50043 6.30004 5.48063 6.50111 5.51921 6.69509C5.5578 6.88907 5.65304 7.06725 5.79289 7.20711C5.93275 7.34696 6.11093 7.4422 6.30491 7.48079C6.49889 7.51937 6.69996 7.49957 6.88268 7.42388C7.06541 7.34819 7.22159 7.22002 7.33147 7.05557C7.44135 6.89112 7.5 6.69778 7.5 6.5C7.5 6.23478 7.39464 5.98043 7.20711 5.79289C7.01957 5.60536 6.76522 5.5 6.5 5.5ZM14.5 5.5C14.3022 5.5 14.1089 5.55865 13.9444 5.66853C13.78 5.77841 13.6518 5.93459 13.5761 6.11732C13.5004 6.30004 13.4806 6.50111 13.5192 6.69509C13.5578 6.88907 13.653 7.06725 13.7929 7.20711C13.9327 7.34696 14.1109 7.4422 14.3049 7.48079C14.4989 7.51937 14.7 7.49957 14.8827 7.42388C15.0654 7.34819 15.2216 7.22002 15.3315 7.05557C15.4414 6.89112 15.5 6.69778 15.5 6.5C15.5 6.23478 15.3946 5.98043 15.2071 5.79289C15.0196 5.60536 14.7652 5.5 14.5 5.5ZM20.5 1.5H4.5C3.70435 1.5 2.94129 1.81607 2.37868 2.37868C1.81607 2.94129 1.5 3.70435 1.5 4.5V20.5C1.5 21.2956 1.81607 22.0587 2.37868 22.6213C2.94129 23.1839 3.70435 23.5 4.5 23.5H20.5C21.2956 23.5 22.0587 23.1839 22.6213 22.6213C23.1839 22.0587 23.5 21.2956 23.5 20.5V4.5C23.5 3.70435 23.1839 2.94129 22.6213 2.37868C22.0587 1.81607 21.2956 1.5 20.5 1.5ZM21.5 20.5C21.5 20.7652 21.3946 21.0196 21.2071 21.2071C21.0196 21.3946 20.7652 21.5 20.5 21.5H4.5C4.23478 21.5 3.98043 21.3946 3.79289 21.2071C3.60536 21.0196 3.5 20.7652 3.5 20.5V11.5H21.5V20.5ZM21.5 9.5H3.5V4.5C3.5 4.23478 3.60536 3.98043 3.79289 3.79289C3.98043 3.60536 4.23478 3.5 4.5 3.5H20.5C20.7652 3.5 21.0196 3.60536 21.2071 3.79289C21.3946 3.98043 21.5 4.23478 21.5 4.5V9.5Z" fill="#029C9A"/>
</svg>
