<svg width="21" height="20" viewBox="0 0 21 20" fill="none" xmlns="http://www.w3.org/2000/svg">
<path d="M9.79 13.71C9.92987 13.851 10.1086 13.9472 10.3033 13.9863C10.4981 14.0253 10.7 14.0055 10.8835 13.9294C11.0669 13.8532 11.2235 13.7241 11.3333 13.5586C11.4431 13.3931 11.5012 13.1986 11.5 13C11.4963 12.7352 11.3927 12.4816 11.21 12.29C11.0694 12.1512 10.8908 12.0572 10.6968 12.0199C10.5028 11.9825 10.3021 12.0034 10.12 12.08C9.99725 12.1276 9.8851 12.199 9.79 12.29C9.60727 12.4816 9.50368 12.7352 9.5 13C9.49924 13.1316 9.52446 13.2621 9.57423 13.3839C9.62399 13.5057 9.69732 13.6166 9.79 13.71ZM18.41 13.51H13.88C13.6148 13.51 13.3604 13.6154 13.1729 13.8029C12.9854 13.9904 12.88 14.2448 12.88 14.51C12.88 14.7752 12.9854 15.0296 13.1729 15.2171C13.3604 15.4046 13.6148 15.51 13.88 15.51H16.28C15.1769 16.6627 13.7544 17.4593 12.1952 17.7974C10.6359 18.1355 9.01121 17.9996 7.52978 17.4072C6.04834 16.8149 4.77787 15.7931 3.88159 14.4732C2.98531 13.1532 2.50418 11.5955 2.5 10C2.5 9.73478 2.39464 9.48043 2.20711 9.29289C2.01957 9.10536 1.76522 9 1.5 9C1.23478 9 0.98043 9.10536 0.792893 9.29289C0.605357 9.48043 0.5 9.73478 0.5 10C0.505287 11.9528 1.08222 13.8613 2.1596 15.49C3.23699 17.1187 4.76767 18.3964 6.56274 19.1652C8.35782 19.9341 10.3387 20.1605 12.261 19.8166C14.1833 19.4727 15.9628 18.5735 17.38 17.23V19C17.38 19.2652 17.4854 19.5196 17.6729 19.7071C17.8604 19.8946 18.1148 20 18.38 20C18.6452 20 18.8996 19.8946 19.0871 19.7071C19.2746 19.5196 19.38 19.2652 19.38 19V14.5C19.3775 14.2416 19.2752 13.9943 19.0943 13.8097C18.9135 13.6251 18.6683 13.5177 18.41 13.51ZM10.5 0C7.93639 0.00731219 5.47349 0.998914 3.62 2.77V1C3.62 0.734784 3.51464 0.48043 3.32711 0.292893C3.13957 0.105357 2.88522 0 2.62 0C2.35478 0 2.10043 0.105357 1.91289 0.292893C1.72536 0.48043 1.62 0.734784 1.62 1V5.5C1.62 5.76522 1.72536 6.01957 1.91289 6.20711C2.10043 6.39464 2.35478 6.5 2.62 6.5H7.12C7.38522 6.5 7.63957 6.39464 7.82711 6.20711C8.01464 6.01957 8.12 5.76522 8.12 5.5C8.12 5.23478 8.01464 4.98043 7.82711 4.79289C7.63957 4.60536 7.38522 4.5 7.12 4.5H4.72C5.82247 3.34787 7.24409 2.5515 8.8024 2.21311C10.3607 1.87472 11.9846 2.00975 13.4656 2.60086C14.9466 3.19198 16.2172 4.21221 17.1142 5.5306C18.0113 6.849 18.4938 8.40539 18.5 10C18.5 10.2652 18.6054 10.5196 18.7929 10.7071C18.9804 10.8946 19.2348 11 19.5 11C19.7652 11 20.0196 10.8946 20.2071 10.7071C20.3946 10.5196 20.5 10.2652 20.5 10C20.5 8.68678 20.2413 7.38642 19.7388 6.17317C19.2362 4.95991 18.4997 3.85752 17.5711 2.92893C16.6425 2.00035 15.5401 1.26375 14.3268 0.761205C13.1136 0.258658 11.8132 0 10.5 0ZM10.5 11C10.7652 11 11.0196 10.8946 11.2071 10.7071C11.3946 10.5196 11.5 10.2652 11.5 10V7C11.5 6.73478 11.3946 6.48043 11.2071 6.29289C11.0196 6.10536 10.7652 6 10.5 6C10.2348 6 9.98043 6.10536 9.79289 6.29289C9.60536 6.48043 9.5 6.73478 9.5 7V10C9.5 10.2652 9.60536 10.5196 9.79289 10.7071C9.98043 10.8946 10.2348 11 10.5 11Z" fill="#FFCC00"/>
</svg>
