<svg width="21" height="21" viewBox="0 0 21 21" fill="none" xmlns="http://www.w3.org/2000/svg">
<path d="M17.5 0.5H3.5C2.70435 0.5 1.94129 0.816071 1.37868 1.37868C0.816071 1.94129 0.5 2.70435 0.5 3.5V17.5C0.5 18.2956 0.816071 19.0587 1.37868 19.6213C1.94129 20.1839 2.70435 20.5 3.5 20.5H17.5C18.2956 20.5 19.0587 20.1839 19.6213 19.6213C20.1839 19.0587 20.5 18.2956 20.5 17.5V3.5C20.5 2.70435 20.1839 1.94129 19.6213 1.37868C19.0587 0.816071 18.2956 0.5 17.5 0.5ZM8.5 2.5H12.5V5.63L11.05 4.63C10.8867 4.52247 10.6955 4.46516 10.5 4.46516C10.3045 4.46516 10.1133 4.52247 9.95 4.63L8.5 5.63V2.5ZM18.5 17.5C18.5 17.7652 18.3946 18.0196 18.2071 18.2071C18.0196 18.3946 17.7652 18.5 17.5 18.5H3.5C3.23478 18.5 2.98043 18.3946 2.79289 18.2071C2.60536 18.0196 2.5 17.7652 2.5 17.5V3.5C2.5 3.23478 2.60536 2.98043 2.79289 2.79289C2.98043 2.60536 3.23478 2.5 3.5 2.5H6.5V7.5C6.50048 7.6809 6.55003 7.85829 6.64336 8.01326C6.7367 8.16823 6.87032 8.29498 7.03 8.38C7.18637 8.46029 7.36115 8.49795 7.53671 8.48917C7.71227 8.48039 7.88242 8.42549 8.03 8.33L10.5 6.7L12.95 8.33C13.1004 8.42905 13.2748 8.48565 13.4547 8.49381C13.6346 8.50198 13.8133 8.46142 13.9721 8.37641C14.1308 8.2914 14.2637 8.16509 14.3566 8.01083C14.4495 7.85657 14.4991 7.68008 14.5 7.5V2.5H17.5C17.7652 2.5 18.0196 2.60536 18.2071 2.79289C18.3946 2.98043 18.5 3.23478 18.5 3.5V17.5Z" fill="#1FB3FB"/>
</svg>
