<svg width="23" height="14" viewBox="0 0 23 14" fill="none" xmlns="http://www.w3.org/2000/svg">
<path d="M5.71 8.29C5.61613 8.1974 5.50364 8.12581 5.38 8.08C5.13654 7.97998 4.86346 7.97998 4.62 8.08C4.4959 8.12491 4.3832 8.19657 4.28989 8.28989C4.19657 8.3832 4.12491 8.4959 4.08 8.62C4.01522 8.77207 3.98914 8.93784 4.00411 9.10246C4.01907 9.26708 4.07461 9.42542 4.16576 9.56332C4.2569 9.70122 4.38081 9.81437 4.5264 9.89266C4.67198 9.97094 4.8347 10.0119 5 10.0119C5.1653 10.0119 5.32802 9.97094 5.4736 9.89266C5.61919 9.81437 5.7431 9.70122 5.83424 9.56332C5.92539 9.42542 5.98093 9.26708 5.99589 9.10246C6.01086 8.93784 5.98478 8.77207 5.92 8.62C5.87241 8.49725 5.80104 8.3851 5.71 8.29ZM13 6H14C14.2652 6 14.5196 5.89464 14.7071 5.70711C14.8946 5.51957 15 5.26522 15 5C15 4.73478 14.8946 4.48043 14.7071 4.29289C14.5196 4.10536 14.2652 4 14 4H13C12.7348 4 12.4804 4.10536 12.2929 4.29289C12.1054 4.48043 12 4.73478 12 5C12 5.26522 12.1054 5.51957 12.2929 5.70711C12.4804 5.89464 12.7348 6 13 6ZM9 6H10C10.2652 6 10.5196 5.89464 10.7071 5.70711C10.8946 5.51957 11 5.26522 11 5C11 4.73478 10.8946 4.48043 10.7071 4.29289C10.5196 4.10536 10.2652 4 10 4H9C8.73478 4 8.48043 4.10536 8.29289 4.29289C8.10536 4.48043 8 4.73478 8 5C8 5.26522 8.10536 5.51957 8.29289 5.70711C8.48043 5.89464 8.73478 6 9 6ZM6 4H5C4.73478 4 4.48043 4.10536 4.29289 4.29289C4.10536 4.48043 4 4.73478 4 5C4 5.26522 4.10536 5.51957 4.29289 5.70711C4.48043 5.89464 4.73478 6 5 6H6C6.26522 6 6.51957 5.89464 6.70711 5.70711C6.89464 5.51957 7 5.26522 7 5C7 4.73478 6.89464 4.48043 6.70711 4.29289C6.51957 4.10536 6.26522 4 6 4ZM19.5 0H3.5C2.70435 0 1.94129 0.316071 1.37868 0.87868C0.81607 1.44129 0.5 2.20435 0.5 3V11C0.5 11.7956 0.81607 12.5587 1.37868 13.1213C1.94129 13.6839 2.70435 14 3.5 14H19.5C20.2956 14 21.0587 13.6839 21.6213 13.1213C22.1839 12.5587 22.5 11.7956 22.5 11V3C22.5 2.20435 22.1839 1.44129 21.6213 0.87868C21.0587 0.316071 20.2956 0 19.5 0ZM20.5 11C20.5 11.2652 20.3946 11.5196 20.2071 11.7071C20.0196 11.8946 19.7652 12 19.5 12H3.5C3.23478 12 2.98043 11.8946 2.79289 11.7071C2.60536 11.5196 2.5 11.2652 2.5 11V3C2.5 2.73478 2.60536 2.48043 2.79289 2.29289C2.98043 2.10536 3.23478 2 3.5 2H19.5C19.7652 2 20.0196 2.10536 20.2071 2.29289C20.3946 2.48043 20.5 2.73478 20.5 3V11ZM14.5 8H8.5C8.23478 8 7.98043 8.10536 7.79289 8.29289C7.60536 8.48043 7.5 8.73478 7.5 9C7.5 9.26522 7.60536 9.51957 7.79289 9.70711C7.98043 9.89464 8.23478 10 8.5 10H14.5C14.7652 10 15.0196 9.89464 15.2071 9.70711C15.3946 9.51957 15.5 9.26522 15.5 9C15.5 8.73478 15.3946 8.48043 15.2071 8.29289C15.0196 8.10536 14.7652 8 14.5 8ZM18 4H17C16.7348 4 16.4804 4.10536 16.2929 4.29289C16.1054 4.48043 16 4.73478 16 5C16 5.26522 16.1054 5.51957 16.2929 5.70711C16.4804 5.89464 16.7348 6 17 6H18C18.2652 6 18.5196 5.89464 18.7071 5.70711C18.8946 5.51957 19 5.26522 19 5C19 4.73478 18.8946 4.48043 18.7071 4.29289C18.5196 4.10536 18.2652 4 18 4ZM18.71 8.29C18.6149 8.19896 18.5028 8.12759 18.38 8.08C18.1365 7.97998 17.8635 7.97998 17.62 8.08C17.4964 8.12581 17.3839 8.1974 17.29 8.29C17.199 8.3851 17.1276 8.49725 17.08 8.62C17.0217 8.75688 16.9947 8.90505 17.0009 9.05369C17.0072 9.20233 17.0465 9.34771 17.1161 9.47923C17.1856 9.61075 17.2836 9.72509 17.403 9.81392C17.5223 9.90276 17.66 9.96384 17.8059 9.99273C17.9519 10.0216 18.1024 10.0176 18.2466 9.98089C18.3908 9.94421 18.525 9.87583 18.6394 9.78072C18.7538 9.68561 18.8455 9.56617 18.9079 9.43111C18.9703 9.29605 19.0017 9.14876 19 9C19.0034 8.86882 18.976 8.73868 18.92 8.62C18.8724 8.49725 18.801 8.3851 18.71 8.29Z" fill="#858CF5"/>
</svg>
