<svg width="387" height="209" viewBox="0 0 387 209" fill="none" xmlns="http://www.w3.org/2000/svg">
<g opacity="0.2">
<path d="M121.385 126.39V115.94H112.835V102.64H121.385V50.8795H132.785L121.385 45.1795V15.6895H101.735L88.1349 45.1795H99.5349L96.9049 50.8795H85.5049L64.4749 96.4695L61.6249 102.64H53.0749L46.9449 115.94H55.4949L50.6749 126.39L43.8049 141.28V156.94H101.885V161.06H110.435V171.51H101.885V194.61H121.365V171.51H129.915L121.365 161.06V156.94H135.705V138.18H121.365V126.39H121.385ZM101.905 138.19H65.0449L70.6049 126.4L75.5249 115.95H66.9749L73.2449 102.65H81.7949L84.7049 96.4795L101.915 59.9695V102.65H93.3649V115.95H101.915V138.19H101.905Z" fill="#FF1B06"/>
<path d="M336.225 126.39V115.94H327.675V102.64H336.225V50.8795H347.625L336.225 45.1795V15.6895H316.575L302.975 45.1795H314.375L311.745 50.8795H300.345L279.315 96.4695L276.465 102.64H267.915L261.785 115.94H270.335L265.515 126.39L258.645 141.28V156.94H316.725V161.06H325.275V171.51H316.725V194.61H336.205V171.51H344.755V161.06H336.205V156.94H350.545V138.18H336.205V126.39H336.225ZM316.735 138.19H279.875L285.435 126.4L290.355 115.95H281.805L288.075 102.65H296.625L299.535 96.4795L316.745 59.9695V102.65H308.195V115.95H316.745V138.19H316.735Z" fill="#FF1B06"/>
<path d="M249.425 50.8895L236.925 45.1895C232.155 25.4795 218.215 14.4895 197.065 14.4895C175.915 14.4895 161.975 25.4795 157.205 45.1895H168.605C168.165 47.0195 167.795 48.9095 167.505 50.8895H156.105C155.615 54.3095 155.365 57.9395 155.365 61.7795V102.649H146.815V115.95H155.365V148.779C155.365 153.139 155.715 157.239 156.375 161.059H164.925C165.575 164.819 166.535 168.299 167.785 171.51H159.235C165.375 187.2 178.575 196.07 197.065 196.07C215.555 196.07 228.755 187.2 234.895 171.51H243.445C244.695 168.31 245.655 164.819 246.305 161.059H237.755C238.415 157.229 238.765 153.139 238.765 148.779V115.95H230.215V102.649H238.765V61.7795C238.765 57.9395 238.515 54.3095 238.025 50.8895H249.425ZM219.045 61.0495V102.649H210.495V115.95H219.045V149.269C219.045 153.729 218.615 157.66 217.765 161.07H226.315C225.235 165.42 223.455 168.909 220.995 171.519H212.445C208.805 175.379 203.675 177.32 197.065 177.32C190.455 177.32 185.325 175.369 181.685 171.519H190.235C187.775 168.909 186.005 165.43 184.915 161.07H176.365C175.515 157.67 175.085 153.739 175.085 149.269V115.95H166.535V102.649H175.085V61.0495C175.085 57.2795 175.395 53.8995 176.015 50.8895H187.415C187.845 48.8095 188.405 46.9095 189.125 45.1895H177.725C181.055 37.2495 187.515 33.2395 197.055 33.2395C206.595 33.2395 213.055 37.2495 216.385 45.1895H227.785C228.505 46.8995 229.075 48.8095 229.495 50.8895H218.095C218.715 53.8995 219.025 57.2795 219.025 61.0495H219.045Z" fill="#FF1B06"/>
<path d="M368.555 45.1895H362.775V50.9695H368.555V45.1895Z" fill="#FF1B06"/>
<path d="M355.255 114.999H349.475V120.779H355.255V114.999Z" fill="#FF1B06"/>
<path d="M376.265 162.92H370.485V168.7H376.265V162.92Z" fill="#FF1B06"/>
</g>
<path d="M115.385 126.39V115.94H106.835V102.64H115.385V50.8795H126.785L115.385 45.1795V15.6895H95.7349L82.1349 45.1795H93.5349L90.9049 50.8795H79.5049L58.4749 96.4695L55.6249 102.64H47.0749L40.9449 115.94H49.4949L44.6749 126.39L37.8049 141.28V156.94H95.8849V161.06H104.435V171.51H95.8849V194.61H115.365V171.51H123.915L115.365 161.06V156.94H129.705V138.18H115.365V126.39H115.385ZM95.9049 138.19H59.0449L64.6049 126.4L69.5249 115.95H60.9749L67.2449 102.65H75.7949L78.7049 96.4795L95.9149 59.9695V102.65H87.3649V115.95H95.9149V138.19H95.9049Z" fill="#FF1B06"/>
<path d="M330.225 126.39V115.94H321.675V102.64H330.225V50.8795H341.625L330.225 45.1795V15.6895H310.575L296.975 45.1795H308.375L305.745 50.8795H294.345L273.315 96.4695L270.465 102.64H261.915L255.785 115.94H264.335L259.515 126.39L252.645 141.28V156.94H310.725V161.06H319.275V171.51H310.725V194.61H330.205V171.51H338.755V161.06H330.205V156.94H344.545V138.18H330.205V126.39H330.225ZM310.735 138.19H273.875L279.435 126.4L284.355 115.95H275.805L282.075 102.65H290.625L293.535 96.4795L310.745 59.9695V102.65H302.195V115.95H310.745V138.19H310.735Z" fill="#FF1B06"/>
<path d="M243.425 50.8895L230.925 45.1895C226.155 25.4795 212.215 14.4895 191.065 14.4895C169.915 14.4895 155.975 25.4795 151.205 45.1895H162.605C162.165 47.0195 161.795 48.9095 161.505 50.8895H150.105C149.615 54.3095 149.365 57.9395 149.365 61.7795V102.649H140.815V115.95H149.365V148.779C149.365 153.139 149.715 157.239 150.375 161.059H158.925C159.575 164.819 160.535 168.299 161.785 171.51H153.235C159.375 187.2 172.575 196.07 191.065 196.07C209.555 196.07 222.755 187.2 228.895 171.51L240.245 161.059H240.305H231.755C232.415 157.229 232.765 153.139 232.765 148.779V115.95H224.215V102.649H232.765V61.7795C232.765 57.9395 232.515 54.3095 232.025 50.8895H243.425ZM213.045 61.0495V102.649H204.495V115.95H213.045V149.269C213.045 153.729 212.615 157.66 211.765 161.07H220.315C219.235 165.42 217.455 168.909 214.995 171.519H206.445C202.805 175.379 197.675 177.32 191.065 177.32C184.455 177.32 179.325 175.369 175.685 171.519H184.235C181.775 168.909 180.005 165.43 178.915 161.07H170.365C169.515 157.67 169.085 153.739 169.085 149.269V115.95H160.535V102.649H169.085V61.0495C169.085 57.2795 169.395 53.8995 170.015 50.8895H181.415C181.845 48.8095 182.405 46.9095 183.125 45.1895H171.725C175.055 37.2495 181.515 33.2395 191.055 33.2395C200.595 33.2395 207.055 37.2495 210.385 45.1895H221.785C222.505 46.8995 223.075 48.8095 223.495 50.8895H212.095C212.715 53.8995 213.025 57.2795 213.025 61.0495H213.045Z" fill="#FF1B06"/>
<path d="M362.555 45.1895H356.775V50.9695H362.555V45.1895Z" fill="#FF1B06"/>
<path d="M349.255 114.999H343.475V120.779H349.255V114.999Z" fill="#FF1B06"/>
<path d="M370.265 162.92H364.485V168.7H370.265V162.92Z" fill="#FF1B06"/>
<g opacity="0.2">
<path d="M96.705 126.39V115.94H88.155V102.64H96.705V50.8795H108.105V45.1795H96.705V15.6895H77.055L63.455 45.1795H74.855L72.225 50.8795H60.825L39.795 96.4695L36.945 102.64H28.395L22.265 115.94H30.815L25.995 126.39L19.125 141.28V156.94H77.205V161.06H85.755V171.51H77.205V194.61H96.685V171.51H105.235V161.06H96.685V156.94H111.025V138.18H96.685V126.39H96.705ZM77.215 96.4795V102.65H68.665V115.95H77.215V138.19H40.355L45.915 126.4L50.835 115.95H42.285L48.555 102.65H57.105L60.015 96.4795L77.225 59.9695V96.4795H77.215Z" fill="#1FB3FB"/>
<path d="M325.875 156.94V138.18H311.535V115.94H302.985V102.64H311.535V50.8795H322.935V45.1795H311.535V15.6895H291.885L278.285 45.1795H289.685L287.055 50.8795H275.655L254.625 96.4695L251.775 102.64H243.225L237.095 115.94H245.645L240.825 126.39L233.955 141.28V156.94H292.035V161.06H300.585V171.51H292.035V194.61H311.515V171.51H320.065V161.06H311.515V156.94H325.855H325.875ZM292.055 96.4795V102.65H283.505V115.95H292.055V138.19H255.195L260.755 126.4L265.675 115.95H257.125L263.395 102.65H271.945L274.855 96.4795L292.065 59.9695V96.4795H292.055Z" fill="#1FB3FB"/>
<path d="M223.645 45.1895H212.245C207.475 25.4795 193.535 14.4895 172.385 14.4895C151.235 14.4895 137.295 25.4795 132.525 45.1895H143.925C143.485 47.0195 143.115 48.9095 142.825 50.8895H131.425C130.935 54.3095 130.685 57.9395 130.685 61.7795V102.649H122.135V115.95H130.685V148.779C130.685 153.139 131.035 157.239 131.695 161.059H140.245C140.895 164.819 141.855 168.299 143.105 171.51H134.555C140.695 187.2 153.895 196.07 172.385 196.07C190.875 196.07 204.075 187.2 210.215 171.51H218.765C220.015 168.31 220.975 164.819 221.625 161.059H213.075C213.735 157.229 214.085 153.139 214.085 148.779V115.95H205.535V102.649H214.085V61.7795C214.085 57.9395 213.835 54.3095 213.345 50.8895H224.745C224.465 48.9095 224.095 47.0195 223.645 45.1895ZM193.425 50.8795C194.045 53.8895 194.355 57.2695 194.355 61.0395V102.639H185.805V115.939H194.355V149.26C194.355 153.72 193.925 157.649 193.075 161.059H201.625C200.545 165.41 198.765 168.9 196.305 171.51H187.755C184.115 175.37 178.985 177.309 172.375 177.309C165.765 177.309 160.635 175.36 156.995 171.51H165.545C163.085 168.9 161.305 165.419 160.225 161.059H151.675C150.825 157.66 150.395 153.73 150.395 149.26V115.939H141.845V102.639H150.395V61.0395C150.395 57.2695 150.705 53.8895 151.325 50.8795H162.725C163.155 48.7995 163.715 46.8995 164.435 45.1795H153.035C156.365 37.2395 162.825 33.2295 172.365 33.2295C181.905 33.2295 188.365 37.2395 191.695 45.1795H203.095C203.815 46.8895 204.385 48.7995 204.805 50.8795H193.405H193.425Z" fill="#1FB3FB"/>
</g>
<path d="M101.705 126.39V115.94H93.155V102.64H101.705V50.8795H113.105L101.705 45.1795V15.6895H82.055L68.455 45.1795H79.855L77.225 50.8795H65.825L44.795 96.4695L41.945 102.64H33.395L27.265 115.94H35.815L30.995 126.39L24.125 141.28V156.94H82.205V161.06H90.755V171.51H82.205V194.61H101.685V171.51H110.235V161.06H101.685V156.94H116.025V138.18H101.685V126.39H101.705ZM82.215 96.4795V102.65H73.665V115.95H82.215V138.19H45.355L50.915 126.4L55.835 115.95H47.285L53.555 102.65H62.105L65.015 96.4795L82.225 59.9695V96.4795H82.215Z" fill="#1FB3FB"/>
<path d="M330.875 156.94V138.18H316.535V115.94H307.985V102.64H316.535V50.8795H327.935L316.535 45.1795V15.6895H296.885L283.285 45.1795H294.685L292.055 50.8795H280.655L259.625 96.4695L256.775 102.64H248.225L242.095 115.94H250.645L245.825 126.39L238.955 141.28V156.94H297.035V161.06H305.585V171.51H297.035V194.61H316.515V171.51H325.065V161.06H316.515V156.94H330.855H330.875ZM297.055 96.4795V102.65H288.505V115.95H297.055V138.19H260.195L265.755 126.4L270.675 115.95H262.125L268.395 102.65H276.945L279.855 96.4795L297.065 59.9695V96.4795H297.055Z" fill="#1FB3FB"/>
<path d="M229.745 50.8895L217.245 45.1895C212.475 25.4795 198.535 14.4895 177.385 14.4895C156.235 14.4895 142.295 25.4795 137.525 45.1895H148.925C148.485 47.0195 148.115 48.9095 147.825 50.8895H136.425C135.935 54.3095 135.685 57.9395 135.685 61.7795V102.649H127.135V115.95H135.685V148.779C135.685 153.139 136.035 157.239 136.695 161.059H145.245C145.895 164.819 146.855 168.299 148.105 171.51H139.555C145.695 187.2 158.895 196.07 177.385 196.07C195.875 196.07 209.075 187.2 215.215 171.51H223.765C225.015 168.31 225.975 164.819 226.625 161.059H218.075C218.735 157.229 219.085 153.139 219.085 148.779V115.95H210.535V102.649H219.085V61.7795C219.085 57.9395 218.835 54.3095 218.345 50.8895H229.745ZM198.425 50.8795C199.045 53.8895 199.355 57.2695 199.355 61.0395V102.639H190.805V115.939H199.355V149.26C199.355 153.72 198.925 157.649 198.075 161.059H206.625C205.545 165.41 203.765 168.9 201.305 171.51H192.755C189.115 175.37 183.985 177.309 177.375 177.309C170.765 177.309 165.635 175.36 161.995 171.51H170.545C168.085 168.9 166.305 165.419 165.225 161.059H156.675C155.825 157.66 155.395 153.73 155.395 149.26V115.939H146.845V102.639H155.395V61.0395C155.395 57.2695 155.705 53.8895 156.325 50.8795H167.725C168.155 48.7995 168.715 46.8995 169.435 45.1795H158.035C161.365 37.2395 167.825 33.2295 177.365 33.2295C186.905 33.2295 193.365 37.2395 196.695 45.1795H208.095C208.815 46.8895 209.385 48.7995 209.805 50.8795H198.405H198.425Z" fill="#1FB3FB"/>
<path d="M109.685 126.39V115.94H101.135V102.64H109.685V50.8795H121.085L109.685 45.1795V15.6895H90.035L76.435 45.1795H87.835L85.205 50.8795H73.805L52.775 96.4695L49.925 102.64H41.375L35.245 115.94H43.795L38.975 126.39L32.105 141.28V156.94H90.185V161.06H98.735V171.51H90.185V194.61H109.665V171.51H118.215L109.665 161.06V156.94H124.005V138.18H109.665V126.39H109.685ZM90.205 138.19H53.345L58.905 126.4L63.825 115.95H55.275L61.545 102.65H70.095L73.005 96.4795L90.215 59.9695V102.65H81.665V115.95H90.215V138.19H90.205Z" fill="white"/>
<path d="M338.865 156.94V138.18H324.525V115.94H315.975V102.64H324.525V50.8795H335.925L324.525 45.1795V15.6895H304.875L291.275 45.1795H302.675L300.045 50.8795H288.645L267.615 96.4695L264.765 102.64H256.215L250.085 115.94H258.635L253.815 126.39L246.945 141.28V156.94H305.025V161.06H313.575V171.51H305.025V194.61H324.505V171.51H333.055V161.06H324.505V156.94H338.845H338.865ZM305.035 138.19H268.175L273.735 126.4L278.655 115.95H270.105L276.375 102.65H284.925L287.835 96.4795L305.045 59.9695V102.65H296.495V115.95H305.045V138.19H305.035Z" fill="white"/>
<path d="M237.735 50.8895L225.235 45.1895C220.465 25.4795 206.525 14.4895 185.375 14.4895C164.225 14.4895 150.285 25.4795 145.515 45.1895H156.915C156.475 47.0195 156.105 48.9095 155.815 50.8895H144.415C143.925 54.3095 143.675 57.9395 143.675 61.7795V102.649H135.125V115.95H143.675V148.779C143.675 153.139 144.025 157.239 144.685 161.059H153.235C153.885 164.819 154.845 168.299 156.095 171.51H147.545C153.685 187.2 166.885 196.07 185.375 196.07C203.865 196.07 217.065 187.2 223.205 171.51L234.615 161.059H226.065C226.725 157.229 227.075 153.139 227.075 148.779V115.95H218.525V102.649H227.075V61.7795C227.075 57.9395 226.825 54.3095 226.335 50.8895H237.735ZM207.345 61.0495V102.649H198.795V115.95H207.345V149.269C207.345 153.729 206.915 157.66 206.065 161.07H214.615C213.535 165.42 211.755 168.909 209.295 171.519H200.745C197.105 175.379 191.975 177.32 185.365 177.32C178.755 177.32 173.625 175.369 169.985 171.519H178.535C176.075 168.909 174.295 165.43 173.215 161.07H164.665C163.815 157.67 163.385 153.739 163.385 149.269V115.95H154.835V102.649H163.385V61.0495C163.385 57.2795 163.695 53.8995 164.315 50.8895H175.715C176.145 48.8095 176.705 46.9095 177.425 45.1895H166.025C169.355 37.2495 175.815 33.2395 185.355 33.2395C194.895 33.2395 201.355 37.2495 204.685 45.1895H216.085C216.805 46.8995 217.375 48.8095 217.795 50.8895H206.395C207.015 53.8995 207.325 57.2795 207.325 61.0495H207.345Z" fill="white"/>
<path d="M367.145 86.4995H319.645L322.385 80.7995L367.145 86.4995Z" fill="white"/>
<path d="M80.695 203.329H75.155V208.869H80.695V203.329Z" fill="#1FB3FB"/>
<path opacity="0.2" d="M77.695 203.329H72.155V208.869H77.695V203.329Z" fill="#1FB3FB"/>
<path d="M9.19503 146.829H3.65503V152.369H9.19503V146.829Z" fill="#1FB3FB"/>
<path opacity="0.2" d="M6.19503 146.829H0.655029V152.369H6.19503V146.829Z" fill="#1FB3FB"/>
<path d="M20.695 86.8295H15.155V92.3695H20.695V86.8295Z" fill="#1FB3FB"/>
<path opacity="0.2" d="M17.695 86.8295H12.155V92.3695H17.695V86.8295Z" fill="#1FB3FB"/>
<path d="M53.695 28.8295H48.155V34.3695H53.695V28.8295Z" fill="#1FB3FB"/>
<path opacity="0.2" d="M50.695 28.8295H45.155V34.3695H50.695V28.8295Z" fill="#1FB3FB"/>
<path d="M344.735 0.0694885H339.195V5.60948H344.735V0.0694885Z" fill="#FF1B06"/>
<path opacity="0.2" d="M348.735 0.0694885H343.195V5.60948H348.735V0.0694885Z" fill="#FF1B06"/>
<path d="M373.615 185.759H315.875L318.605 180.059L373.615 185.759Z" fill="#FF1B06"/>
<path opacity="0.2" d="M325.605 180.059L322.875 185.759H380.615L386.515 184.763L325.605 180.059Z" fill="#FF1B06"/>
<path d="M83.1448 184.809L38.3848 179.109H85.8748L83.1448 184.809Z" fill="#1FB3FB"/>
<path opacity="0.2" d="M74.485 184.809L29.7249 179.109H77.2149L74.485 184.809Z" fill="#1FB3FB"/>
<path opacity="0.2" d="M63.3551 70.8295L8.09499 65.1295H66.0851" fill="#1FB3FB"/>
<path d="M70.855 70.8295L15.595 65.1295H73.585" fill="#1FB3FB"/>
</svg>
