<svg width="32" height="32" viewBox="0 0 32 32" fill="none" xmlns="http://www.w3.org/2000/svg">
<path d="M6.66663 10.6667H25.3333C25.6869 10.6667 26.0261 10.5262 26.2761 10.2761C26.5261 10.0261 26.6666 9.68696 26.6666 9.33333C26.6666 8.97971 26.5261 8.64057 26.2761 8.39052C26.0261 8.14048 25.6869 8 25.3333 8H6.66663C6.313 8 5.97387 8.14048 5.72382 8.39052C5.47377 8.64057 5.33329 8.97971 5.33329 9.33333C5.33329 9.68696 5.47377 10.0261 5.72382 10.2761C5.97387 10.5262 6.313 10.6667 6.66663 10.6667ZM28 14.6667H3.99996C3.64634 14.6667 3.3072 14.8071 3.05715 15.0572C2.8071 15.3072 2.66663 15.6464 2.66663 16C2.66663 16.3536 2.8071 16.6928 3.05715 16.9428C3.3072 17.1929 3.64634 17.3333 3.99996 17.3333H28C28.3536 17.3333 28.6927 17.1929 28.9428 16.9428C29.1928 16.6928 29.3333 16.3536 29.3333 16C29.3333 15.6464 29.1928 15.3072 28.9428 15.0572C28.6927 14.8071 28.3536 14.6667 28 14.6667ZM25.3333 21.3333H6.66663C6.313 21.3333 5.97387 21.4738 5.72382 21.7239C5.47377 21.9739 5.33329 22.313 5.33329 22.6667C5.33329 23.0203 5.47377 23.3594 5.72382 23.6095C5.97387 23.8595 6.313 24 6.66663 24H25.3333C25.6869 24 26.0261 23.8595 26.2761 23.6095C26.5261 23.3594 26.6666 23.0203 26.6666 22.6667C26.6666 22.313 26.5261 21.9739 26.2761 21.7239C26.0261 21.4738 25.6869 21.3333 25.3333 21.3333Z" fill="white"/>
</svg>
