<svg xmlns="http://www.w3.org/2000/svg" xmlns:xlink="http://www.w3.org/1999/xlink"><symbol id="sprite-about" viewBox="0 0 20 20"><path d="M16 8.82a1 1 0 0 0-1 1V17a1 1 0 0 1-1 1H3a1 1 0 0 1-1-1V6a1 1 0 0 1 1-1h7.18a1 1 0 1 0 0-2H3a3 3 0 0 0-3 3v11a3 3 0 0 0 3 3h11a3 3 0 0 0 3-3V9.82a1 1 0 0 0-1-1m3.92-8.2a1 1 0 0 0-.54-.54A1 1 0 0 0 19 0h-6a1 1 0 1 0 0 2h3.59L6.29 12.29a1 1 0 0 0 .325 1.639 1 1 0 0 0 1.095-.219L18 3.41V7a1 1 0 0 0 2 0V1a1 1 0 0 0-.08-.38"/></symbol><use xlink:href="#sprite-about" width="20" height="20" y="0"/><view id="sprite-about-view" viewBox="0 0 20 20"/><symbol id="sprite-advanced" viewBox="0 0 17 22"><path d="m14.69 11.94-3.24-1.62c1.29-1 2.12-2.56 2.12-4.32 0-3.03-2.47-5.5-5.5-5.5A5.51 5.51 0 0 0 2.57 6c0 2.13 1.22 3.98 3 4.89v3.26c-2.15-.46-2.02-.44-2.26-.44-.53 0-1.03.21-1.41.59L.5 15.72l5.09 5.09c.43.44 1.03.69 1.65.69h6.3c.98 0 1.81-.7 1.97-1.67l.8-4.71c.22-1.3-.43-2.58-1.62-3.18m-.35 2.85-.8 4.71h-6.3c-.09 0-.17-.04-.24-.1l-3.68-3.68 4.25.89V6c0-.28.22-.5.5-.5s.5.22.5.5v6h1.76l3.46 1.73c.4.2.62.63.55 1.06M4.57 6c0-1.93 1.57-3.5 3.5-3.5s3.5 1.57 3.5 3.5c0 .95-.38 1.81-1 2.44V6a2.5 2.5 0 0 0-5 0v2.44c-.62-.63-1-1.49-1-2.44"/></symbol><use xlink:href="#sprite-advanced" width="17" height="22" y="20"/><view id="sprite-advanced-view" viewBox="0 20 17 22"/><symbol id="sprite-arrow" viewBox="0 0 8 12"><path d="M3.816.842H.5L4.184 6 .5 11.158h3.316L7.5 6z"/></symbol><use xlink:href="#sprite-arrow" width="8" height="12" y="42"/><view id="sprite-arrow-view" viewBox="0 42 8 12"/><symbol id="sprite-cases" viewBox="0 0 25 25"><g><path d="M21.5 6.5h-18c-1.1 0-2 .9-2 2v8c0 1.1.9 2 2 2h18c1.1 0 2-.9 2-2v-8c0-1.1-.9-2-2-2m0 10h-18v-8h18zm-15-1h2v-2h2v-2h-2v-2h-2v2h-2v2h2z"/><path d="M15 15.5a1.5 1.5 0 1 0 0-3 1.5 1.5 0 0 0 0 3"/><path d="M19 12.5a1.5 1.5 0 1 0 0-3 1.5 1.5 0 0 0 0 3"/></g></symbol><use xlink:href="#sprite-cases" width="25" height="25" y="54"/><view id="sprite-cases-view" viewBox="0 54 25 25"/><symbol id="sprite-clocks" viewBox="0 0 20 21"><path d="M10.5 7H9v6l4.75 2.85.75-1.23-4-2.37zM15.337.81l4.607 3.845-1.28 1.535-4.61-3.843zM4.663.81l1.282 1.536L1.337 6.19.057 4.654zM10 3a9 9 0 1 0 .001 18.001A9 9 0 0 0 10 3m0 16c-3.86 0-7-3.14-7-7s3.14-7 7-7 7 3.14 7 7-3.14 7-7 7"/></symbol><use xlink:href="#sprite-clocks" width="20" height="21" y="79"/><view id="sprite-clocks-view" viewBox="0 79 20 21"/><symbol id="sprite-close" viewBox="0 0 20 20"><path d="m16.364 5.05-1.888 1.888h-1.414V5.524l1.888-1.888zm0 9.9-1.414 1.414-1.888-1.888v-1.414h1.414zM6.938 5.524v1.414H5.524L3.636 5.05 5.05 3.636zm0 7.538v1.414L5.05 16.364 3.636 14.95l1.888-1.888zM19.192 5.05 14.95.808l-3.89 3.889v4.242h4.243zm0 9.9-3.889-3.89h-4.242v4.243l3.889 3.89zM8.94 4.697 5.05.807.808 5.05l3.889 3.89h4.242zm0 6.364H4.697L.807 14.95l4.243 4.242 3.89-3.889z"/></symbol><use xlink:href="#sprite-close" width="20" height="20" y="100"/><view id="sprite-close-view" viewBox="0 100 20 20"/><symbol id="sprite-copy" viewBox="0 0 25 16"><path d="M7.5 3.5v-3l-7 7 7 7v-3l-4-4zm6 1v-4l-7 7 7 7v-4.1c5 0 8.5 1.6 11 5.1-1-5-4-10-11-11"/></symbol><use xlink:href="#sprite-copy" width="25" height="16" y="120"/><view id="sprite-copy-view" viewBox="0 120 25 16"/><symbol id="sprite-core-info" viewBox="0 0 23 23"><path d="M9.5 4.5a1 1 0 1 0 0 2 1 1 0 0 0 0-2m-4 0a1 1 0 1 0 0 2 1 1 0 0 0 0-2m8 0a1 1 0 1 0 0 2 1 1 0 0 0 0-2m6-4h-16a3 3 0 0 0-3 3v16a3 3 0 0 0 3 3h16a3 3 0 0 0 3-3v-16a3 3 0 0 0-3-3m1 19a1 1 0 0 1-1 1h-16a1 1 0 0 1-1-1v-9h18zm0-11h-18v-5a1 1 0 0 1 1-1h16a1 1 0 0 1 1 1z"/></symbol><use xlink:href="#sprite-core-info" width="23" height="23" y="136"/><view id="sprite-core-info-view" viewBox="0 136 23 23"/><symbol id="sprite-decore" viewBox="0 0 284 32"><path d="M284 3h-95.188c-1.28 0-2.608.034-3.726.66A6.1 6.1 0 0 0 182 8.283V22c0 5.523-4.477 10-10 10h-60c-5.523 0-10-4.477-10-10V8.284a6.1 6.1 0 0 0-4.647-5.232A2.3 2.3 0 0 0 96.869 3H0V0h284z"/></symbol><use xlink:href="#sprite-decore" width="284" height="32" y="159"/><view id="sprite-decore-view" viewBox="0 159 284 32"/><symbol id="sprite-double-arrow" viewBox="0 0 17 14"><path d="M12 0H7.5l5 7-5 7H12l5-7z"/><path d="M5 0H.5l5 7-5 7H5l5-7z"/></symbol><use xlink:href="#sprite-double-arrow" width="17" height="14" y="191"/><view id="sprite-double-arrow-view" viewBox="0 191 17 14"/><symbol id="sprite-faq" viewBox="0 0 20 20"><path d="M9.29 13.29a2 2 0 0 0-.12.15.8.8 0 0 0-.09.18.6.6 0 0 0-.06.18 1.4 1.4 0 0 0 0 .2.84.84 0 0 0 .08.38.9.9 0 0 0 .54.54.94.94 0 0 0 .76 0 .9.9 0 0 0 .54-.54A1 1 0 0 0 11 14a1 1 0 0 0-1.71-.71M10 0a10 10 0 1 0 0 20 10 10 0 0 0 0-20m0 18a8 8 0 1 1 0-16 8 8 0 0 1 0 16m0-13a3 3 0 0 0-2.6 1.5 1 1 0 1 0 1.73 1A1 1 0 0 1 10 7a1 1 0 1 1 0 2 1 1 0 0 0-1 1v1a1 1 0 1 0 2 0v-.18A3 3 0 0 0 10 5"/></symbol><use xlink:href="#sprite-faq" width="20" height="20" y="205"/><view id="sprite-faq-view" viewBox="0 205 20 20"/><symbol id="sprite-filters" viewBox="0 0 30 30"><path d="M5.667.333H.333v8h8v-8zm5.333 20c0 1.734 1.12 3.2 2.667 3.76v5.574h2.667v-5.574A3.99 3.99 0 0 0 19 20.333v-2.666h-8zM.333 13.667c0 1.733 1.12 3.2 2.667 3.76v12.24h2.667v-12.24c1.547-.56 2.667-2.027 2.667-3.76V11h-8zM27 12.573V1.667c0-.734-.6-1.334-1.333-1.334-.734 0-1.334.6-1.334 1.334v10.906h-2.666v8h8v-8zM16.334 1.667c0-.734-.6-1.334-1.334-1.334-.733 0-1.333.6-1.333 1.334V7H11v8h8V7h-2.666zm5.333 24.24c0 1.733 1.12 3.2 2.666 3.76H27a3.99 3.99 0 0 0 2.667-3.76V23.24h-8z"/></symbol><use xlink:href="#sprite-filters" width="30" height="30" y="225"/><view id="sprite-filters-view" viewBox="0 225 30 30"/><symbol id="sprite-help" viewBox="0 0 21 20"><path d="M9.79 13.71A1 1 0 0 0 11.5 13a1.05 1.05 0 0 0-.29-.71 1 1 0 0 0-1.09-.21 1 1 0 0 0-.33.21 1.05 1.05 0 0 0-.29.71 1 1 0 0 0 .29.71m8.62-.2h-4.53a1 1 0 0 0 0 2h2.4A8 8 0 0 1 2.5 10a1 1 0 0 0-2 0 10 10 0 0 0 16.88 7.23V19a1 1 0 0 0 2 0v-4.5a1 1 0 0 0-.97-.99M10.5 0a10 10 0 0 0-6.88 2.77V1a1 1 0 0 0-2 0v4.5a1 1 0 0 0 1 1h4.5a1 1 0 0 0 0-2h-2.4A8 8 0 0 1 18.5 10a1 1 0 0 0 2 0 10 10 0 0 0-10-10m0 11a1 1 0 0 0 1-1V7a1 1 0 0 0-2 0v3a1 1 0 0 0 1 1"/></symbol><use xlink:href="#sprite-help" width="21" height="20" y="255"/><view id="sprite-help-view" viewBox="0 255 21 20"/><symbol id="sprite-history" viewBox="0 0 21 21"><path d="M17.5.5h-14a3 3 0 0 0-3 3v14a3 3 0 0 0 3 3h14a3 3 0 0 0 3-3v-14a3 3 0 0 0-3-3m-9 2h4v3.13l-1.45-1a1 1 0 0 0-1.1 0l-1.45 1zm10 15a1 1 0 0 1-1 1h-14a1 1 0 0 1-1-1v-14a1 1 0 0 1 1-1h3v5a1 1 0 0 0 .53.88 1 1 0 0 0 1-.05L10.5 6.7l2.45 1.63a1 1 0 0 0 1.55-.83v-5h3a1 1 0 0 1 1 1z"/></symbol><use xlink:href="#sprite-history" width="21" height="21" y="275"/><view id="sprite-history-view" viewBox="0 275 21 21"/><symbol id="sprite-home" viewBox="0 0 18 21"><path d="m17 7-6-5.26a3 3 0 0 0-4 0L1 7a3 3 0 0 0-1 2.26V18a3 3 0 0 0 3 3h12a3 3 0 0 0 3-3V9.25A3 3 0 0 0 17 7m-6 12H7v-5a1 1 0 0 1 1-1h2a1 1 0 0 1 1 1zm5-1a1 1 0 0 1-1 1h-2v-5a3 3 0 0 0-3-3H8a3 3 0 0 0-3 3v5H3a1 1 0 0 1-1-1V9.25a1 1 0 0 1 .34-.75l6-5.25a1 1 0 0 1 1.32 0l6 5.25a1 1 0 0 1 .34.75z"/></symbol><use xlink:href="#sprite-home" width="18" height="21" y="296"/><view id="sprite-home-view" viewBox="0 296 18 21"/><symbol id="sprite-keyboard" viewBox="0 0 23 15"><path d="M5.71 8.79a.9.9 0 0 0-.33-.21 1 1 0 0 0-.76 0 .9.9 0 0 0-.54.54 1 1 0 1 0 1.84 0 1 1 0 0 0-.21-.33M13 6.5h1a1 1 0 1 0 0-2h-1a1 1 0 1 0 0 2m-4 0h1a1 1 0 1 0 0-2H9a1 1 0 0 0 0 2m-3-2H5a1 1 0 0 0 0 2h1a1 1 0 0 0 0-2m13.5-4h-16a3 3 0 0 0-3 3v8a3 3 0 0 0 3 3h16a3 3 0 0 0 3-3v-8a3 3 0 0 0-3-3m1 11a1 1 0 0 1-1 1h-16a1 1 0 0 1-1-1v-8a1 1 0 0 1 1-1h16a1 1 0 0 1 1 1zm-6-3h-6a1 1 0 0 0 0 2h6a1 1 0 0 0 0-2m3.5-4h-1a1 1 0 1 0 0 2h1a1 1 0 1 0 0-2m.71 4.29a1 1 0 0 0-.33-.21 1 1 0 0 0-.76 0 .9.9 0 0 0-.33.21 1 1 0 0 0-.21.33A1 1 0 1 0 19 9.5a.84.84 0 0 0-.08-.38 1 1 0 0 0-.21-.33"/></symbol><use xlink:href="#sprite-keyboard" width="23" height="15" y="317"/><view id="sprite-keyboard-view" viewBox="0 317 23 15"/><symbol id="sprite-list" viewBox="0 0 18 18"><path d="M16 0H2C.9 0 0 .9 0 2v14c0 1.1.9 2 2 2h14c1.1 0 2-.9 2-2V2c0-1.1-.9-2-2-2m0 16H2V2h14zM4 7h2v7H4zm4-3h2v10H8zm4 6h2v4h-2z"/></symbol><use xlink:href="#sprite-list" width="18" height="18" y="332"/><view id="sprite-list-view" viewBox="0 332 18 18"/><symbol id="sprite-media" viewBox="0 0 22 24"><path d="M22 5.5V20c0 2.2-1.8 4-4 4h-7.3c-1.08 0-2.1-.43-2.85-1.19L0 14.83s1.26-1.23 1.3-1.25c.22-.19.49-.29.79-.29.22 0 .42.06.6.16.04.01 4.31 2.46 4.31 2.46V4c0-.83.67-1.5 1.5-1.5S10 3.17 10 4v7h1V1.5c0-.83.67-1.5 1.5-1.5S14 .67 14 1.5V11h1V2.5c0-.83.67-1.5 1.5-1.5s1.5.67 1.5 1.5V11h1V5.5c0-.83.67-1.5 1.5-1.5s1.5.67 1.5 1.5"/></symbol><use xlink:href="#sprite-media" width="22" height="24" y="350"/><view id="sprite-media-view" viewBox="0 350 22 24"/><symbol id="sprite-nav-arrow" viewBox="0 0 10 11"><path d="M9.49 5.505.496 10.697V.314z"/></symbol><use xlink:href="#sprite-nav-arrow" width="10" height="11" y="374"/><view id="sprite-nav-arrow-view" viewBox="0 374 10 11"/><symbol id="sprite-search" viewBox="0 0 26 26"><path d="M17.958 15.833H16.84l-.396-.382a9.17 9.17 0 0 0 2.224-5.993A9.21 9.21 0 0 0 9.458.25 9.21 9.21 0 0 0 .25 9.458a9.21 9.21 0 0 0 9.208 9.209 9.17 9.17 0 0 0 5.993-2.225l.382.397v1.12l7.084 7.069 2.11-2.111zm-8.5 0a6.366 6.366 0 0 1-6.375-6.375 6.366 6.366 0 0 1 6.375-6.375 6.366 6.366 0 0 1 6.375 6.375 6.366 6.366 0 0 1-6.375 6.375"/></symbol><use xlink:href="#sprite-search" width="26" height="26" y="385"/><view id="sprite-search-view" viewBox="0 385 26 26"/><symbol id="sprite-settings" viewBox="0 0 18 18"><path d="M0 14v2h6v-2zM0 2v2h10V2zm10 16v-2h8v-2h-8v-2H8v6zM4 6v2H0v2h4v2h2V6zm14 4V8H8v2zm-6-4h2V4h4V2h-4V0h-2z"/></symbol><use xlink:href="#sprite-settings" width="18" height="18" y="411"/><view id="sprite-settings-view" viewBox="0 411 18 18"/><symbol id="sprite-techs" viewBox="0 0 20 20"><path d="M19 0H1a1 1 0 0 0-1 1v18a1 1 0 0 0 1 1h18a1 1 0 0 0 1-1V1a1 1 0 0 0-1-1M6 18H2V8h4zm6 0H8V8h4zm6 0h-4V8h4zm0-12H2V2h16z"/></symbol><use xlink:href="#sprite-techs" width="20" height="20" y="429"/><view id="sprite-techs-view" viewBox="0 429 20 20"/><symbol id="sprite-tiles" viewBox="0 0 16 20"><path d="M4 15a1 1 0 1 0 0 2 1 1 0 0 0 0-2m0-6a1 1 0 1 0 0 2 1 1 0 0 0 0-2m0-6a1 1 0 1 0 0 2 1 1 0 0 0 0-2m12 0a3 3 0 0 0-3-3H3a3 3 0 0 0-3 3v2a3 3 0 0 0 .78 2A3 3 0 0 0 0 9v2a3 3 0 0 0 .78 2A3 3 0 0 0 0 15v2a3 3 0 0 0 3 3h10a3 3 0 0 0 3-3v-2a3 3 0 0 0-.78-2 3 3 0 0 0 .78-2V9a3 3 0 0 0-.78-2A3 3 0 0 0 16 5zm-2 14a1 1 0 0 1-1 1H3a1 1 0 0 1-1-1v-2a1 1 0 0 1 1-1h10a1 1 0 0 1 1 1zm0-6a1 1 0 0 1-1 1H3a1 1 0 0 1-1-1V9a1 1 0 0 1 1-1h10a1 1 0 0 1 1 1zm0-6a1 1 0 0 1-1 1H3a1 1 0 0 1-1-1V3a1 1 0 0 1 1-1h10a1 1 0 0 1 1 1z"/></symbol><use xlink:href="#sprite-tiles" width="16" height="20" y="449"/><view id="sprite-tiles-view" viewBox="0 449 16 20"/><symbol id="sprite-totem" viewBox="0 0 20 20"><path d="M2 4H0v14c0 1.1.9 2 2 2h14v-2H2zm16-4H6C4.9 0 4 .9 4 2v12c0 1.1.9 2 2 2h12c1.1 0 2-.9 2-2V2c0-1.1-.9-2-2-2m0 14H6V2h12zM8 7h8v2H8zm0 3h4v2H8zm0-6h8v2H8z"/></symbol><use xlink:href="#sprite-totem" width="20" height="20" y="469"/><view id="sprite-totem-view" viewBox="0 469 20 20"/></svg>