<svg width="28" height="28" viewBox="0 0 28 28" fill="none" xmlns="http://www.w3.org/2000/svg">
<path d="M18.9467 14.9467C20.2539 13.9182 21.208 12.5079 21.6763 10.9119C22.1446 9.31595 22.1039 7.61369 21.5597 6.04196C21.0155 4.47023 19.995 3.10719 18.6401 2.14248C17.2852 1.17776 15.6633 0.65934 14 0.65934C12.3367 0.65934 10.7148 1.17776 9.3599 2.14248C8.00499 3.10719 6.98446 4.47023 6.44028 6.04196C5.8961 7.61369 5.85535 9.31595 6.32368 10.9119C6.79201 12.5079 7.74614 13.9182 9.05333 14.9467C6.81343 15.8441 4.85905 17.3325 3.39852 19.2532C1.93799 21.174 1.02608 23.4551 0.759996 25.8533C0.740735 26.0284 0.756151 26.2056 0.805363 26.3747C0.854575 26.5439 0.936619 26.7017 1.04681 26.8391C1.26935 27.1167 1.59304 27.2944 1.94666 27.3333C2.30028 27.3722 2.65488 27.2691 2.93243 27.0465C3.20998 26.824 3.38776 26.5003 3.42666 26.1467C3.71944 23.5403 4.96224 21.1331 6.91762 19.3851C8.873 17.637 11.4039 16.6707 14.0267 16.6707C16.6495 16.6707 19.1803 17.637 21.1357 19.3851C23.0911 21.1331 24.3339 23.5403 24.6267 26.1467C24.6629 26.4743 24.8192 26.7769 25.0655 26.996C25.3117 27.2152 25.6304 27.3353 25.96 27.3333H26.1067C26.4562 27.2931 26.7756 27.1164 26.9954 26.8417C27.2152 26.5669 27.3175 26.2165 27.28 25.8667C27.0127 23.4616 26.0958 21.1747 24.6278 19.2509C23.1598 17.3272 21.1959 15.8393 18.9467 14.9467ZM14 14C12.9452 14 11.914 13.6872 11.037 13.1012C10.1599 12.5151 9.47631 11.6822 9.07264 10.7076C8.66897 9.73311 8.56335 8.66075 8.76914 7.62619C8.97493 6.59162 9.48288 5.64131 10.2288 4.89543C10.9746 4.14955 11.9249 3.6416 12.9595 3.43581C13.9941 3.23003 15.0664 3.33564 16.041 3.73931C17.0155 4.14298 17.8485 4.82656 18.4345 5.70363C19.0205 6.58069 19.3333 7.61183 19.3333 8.66667C19.3333 10.0812 18.7714 11.4377 17.7712 12.4379C16.771 13.4381 15.4145 14 14 14Z" fill="#77A8AC"/>
</svg>
