<svg width="26" height="25" viewBox="0 0 26 25" fill="none" xmlns="http://www.w3.org/2000/svg">
<g clip-path="url(#clip0_56_141)">
<path d="M25.5852 7.05475C25.2976 14.3081 24.9381 2.55556 24.461 0.315735H24.1407C23.8858 1.44216 23.7158 2.56207 23.5001 3.6885C23.3694 4.73028 23.9511 17.2251 23.023 9.41177C22.8138 7.66679 23.4152 16.7759 22.7615 14.9788C21.7615 12.2441 22.7158 22.1801 23.1733 23.5865C23.2844 23.9381 23.7616 24.179 24.291 24.179H24.3106C24.8401 24.179 25.3107 23.9316 25.4284 23.58C26.0885 21.542 25.6637 4.9777 25.5787 7.05475H25.5852Z" fill="#183132"/>
<path d="M19.6764 10.8833C19.4215 15.2848 19.049 8.01839 18.5914 5.77856H18.2777C18.0293 6.90499 17.9508 12.9278 17.6567 7.51052C17.4802 4.32658 16.3429 20.4351 17.3364 23.5865C17.4475 23.9381 17.9051 24.179 18.4215 24.179H18.4411C18.9509 24.179 19.415 23.9316 19.5261 23.58C20.1667 21.542 19.7941 8.79973 19.6764 10.8768V10.8833Z" fill="#183132"/>
<path d="M13.774 16.3461C13.2642 19.517 13.2446 13.4812 12.8589 11.2414H12.5975C12.3883 12.3678 12.068 16.6912 12.0746 12.9734C12.0746 9.7829 10.9699 20.4351 11.8066 23.5865C11.8981 23.9381 12.2837 24.179 12.7217 24.179H12.7413C13.1727 24.179 13.5583 23.9316 13.6498 23.58C14.1923 21.542 14.1008 14.2821 13.774 16.3396V16.3461Z" fill="#183132"/>
<path d="M7.26389 14.5165H7.00244C6.79328 15.6429 6.36188 18.8464 6.28344 17.7069C6.0612 14.523 5.37489 20.4286 6.21154 23.58C6.30305 23.9316 6.68869 24.1725 7.12663 24.1725H7.14624C7.57764 24.1725 7.96328 23.9251 8.05479 23.5735C8.59731 21.5355 8.48619 21.6722 8.17898 19.6147C7.96328 17.3619 7.64954 16.7498 7.26389 14.51V14.5165Z" fill="#183132"/>
<path d="M2.32898 19.797C2.25055 20.9299 1.16551 19.0352 0.95635 17.9088H0.694896C0.309252 20.1486 0.492269 19.7384 0.270034 21.9913C-0.0371749 24.0553 0.289643 23.5539 0.54456 23.9837C0.727578 24.2962 1.04132 24.3157 1.47272 24.3157H1.49233C1.92373 24.3157 2.30937 24.0748 2.40742 23.7232C3.24407 20.5718 2.55776 16.6196 2.33552 19.8035L2.32898 19.797Z" fill="#FF7337"/>
</g>
<defs>
<clipPath id="clip0_56_141">
<rect width="25.6552" height="24" fill="white" transform="translate(0.145752 0.315735)"/>
</clipPath>
</defs>
</svg>
