<svg width="26" height="25" viewBox="0 0 26 25" fill="none" xmlns="http://www.w3.org/2000/svg">
<g clip-path="url(#clip0_56_148)">
<path d="M25.5261 7.05475C25.2386 14.3081 24.8791 2.55556 24.4019 0.315735H24.0816C23.8267 1.44216 23.6568 2.56207 23.4411 3.6885C23.3103 4.73028 23.8921 17.2251 22.9639 9.41177C22.7547 7.66679 23.3561 16.7759 22.7024 14.9788C21.7024 12.2441 22.6567 22.1801 23.1142 23.5865C23.2254 23.9381 23.7025 24.179 24.232 24.179H24.2516C24.781 24.179 25.2516 23.9316 25.3693 23.58C26.0294 21.542 25.6046 4.9777 25.5196 7.05475H25.5261Z" fill="#183132"/>
<path d="M19.6174 10.8833C19.3624 15.2848 18.9899 8.01839 18.5323 5.77856H18.2186C17.9702 6.90499 17.8918 12.9278 17.5976 7.51052C17.4211 4.32658 16.2838 20.4351 17.2773 23.5865C17.3885 23.9381 17.846 24.179 18.3624 24.179H18.382C18.8918 24.179 19.3559 23.9316 19.467 23.58C20.1076 21.542 19.735 8.79973 19.6174 10.8768V10.8833Z" fill="#183132"/>
<path d="M13.7149 16.3461C13.2051 19.517 13.1855 13.4812 12.7998 11.2414H12.5384C12.3292 12.3678 12.0089 16.6912 12.0155 12.9734C12.0155 9.7829 10.9108 20.4351 11.7475 23.5865C11.839 23.9381 12.2246 24.179 12.6626 24.179H12.6822C13.1136 24.179 13.4992 23.9316 13.5907 23.58C14.1332 21.542 14.0417 14.2821 13.7149 16.3396V16.3461Z" fill="#183132"/>
<path d="M7.20481 14.5165H6.94336C6.73419 15.6429 6.30279 18.8464 6.22436 17.7069C6.00212 14.523 5.31581 20.4286 6.15246 23.58C6.24397 23.9316 6.62961 24.1725 7.06755 24.1725H7.08716C7.51856 24.1725 7.9042 23.9251 7.99571 23.5735C8.53823 21.5355 8.42711 21.6722 8.1199 19.6147C7.9042 17.3619 7.59046 16.7498 7.20481 14.51V14.5165Z" fill="#FFCC00"/>
<path d="M2.2699 19.797C2.19147 20.9299 1.10643 19.0352 0.897268 17.9088H0.635814C0.25017 20.1486 0.433187 19.7384 0.210952 21.9913C-0.0962569 24.0553 0.230561 23.5539 0.485478 23.9837C0.668496 24.2962 0.982241 24.3157 1.41364 24.3157H1.43325C1.86465 24.3157 2.25029 24.0748 2.34834 23.7232C3.18499 20.5718 2.49867 16.6196 2.27644 19.8035L2.2699 19.797Z" fill="#FFCC00"/>
</g>
<defs>
<clipPath id="clip0_56_148">
<rect width="25.6552" height="24" fill="white" transform="translate(0.0866699 0.315735)"/>
</clipPath>
</defs>
</svg>
