<svg width="26" height="25" viewBox="0 0 26 25" fill="none" xmlns="http://www.w3.org/2000/svg">
<g clip-path="url(#clip0_56_154)">
<path d="M25.4668 7.05475C25.1792 14.3081 24.8197 2.55556 24.3426 0.315735H24.0223C23.7674 1.44216 23.5974 2.56207 23.3817 3.6885C23.251 4.73028 23.8327 17.2251 22.9046 9.41177C22.6954 7.66679 23.2968 16.7759 22.6431 14.9788C21.6431 12.2441 22.5974 22.1801 23.0549 23.5865C23.166 23.9381 23.6432 24.179 24.1726 24.179H24.1922C24.7217 24.179 25.1923 23.9316 25.31 23.58C25.9701 21.542 25.5453 4.9777 25.4603 7.05475H25.4668Z" fill="#183132"/>
<path d="M19.558 10.8833C19.3031 15.2848 18.9305 8.01839 18.473 5.77856H18.1593C17.9109 6.90499 17.8324 12.9278 17.5383 7.51052C17.3618 4.32658 16.2245 20.4351 17.218 23.5865C17.3291 23.9381 17.7867 24.179 18.3031 24.179H18.3227C18.8325 24.179 19.2966 23.9316 19.4077 23.58C20.0483 21.542 19.6757 8.79973 19.558 10.8768V10.8833Z" fill="#183132"/>
<path d="M13.6556 16.3461C13.1458 19.517 13.1262 13.4812 12.7405 11.2414H12.4791C12.2699 12.3678 11.9496 16.6912 11.9561 12.9734C11.9561 9.7829 10.8515 20.4351 11.6882 23.5865C11.7797 23.9381 12.1653 24.179 12.6032 24.179H12.6229C13.0543 24.179 13.4399 23.9316 13.5314 23.58C14.0739 21.542 13.9824 14.2821 13.6556 16.3396V16.3461Z" fill="#63DCFF"/>
<path d="M7.14548 14.5165H6.88403C6.67487 15.6429 6.24347 18.8464 6.16503 17.7069C5.9428 14.523 5.25648 20.4286 6.09313 23.58C6.18464 23.9316 6.57029 24.1725 7.00822 24.1725H7.02783C7.45923 24.1725 7.84487 23.9251 7.93638 23.5735C8.4789 21.5355 8.36778 21.6722 8.06057 19.6147C7.84487 17.3619 7.53113 16.7498 7.14548 14.51V14.5165Z" fill="#63DCFF"/>
<path d="M2.21058 19.797C2.13214 20.9299 1.04711 19.0352 0.837942 17.9088H0.576488C0.190843 20.1486 0.373861 19.7384 0.151625 21.9913C-0.155583 24.0553 0.171234 23.5539 0.426152 23.9837C0.60917 24.2962 0.922915 24.3157 1.35431 24.3157H1.37392C1.80532 24.3157 2.19097 24.0748 2.28901 23.7232C3.12566 20.5718 2.43935 16.6196 2.21711 19.8035L2.21058 19.797Z" fill="#63DCFF"/>
</g>
<defs>
<clipPath id="clip0_56_154">
<rect width="25.6552" height="24" fill="white" transform="translate(0.0273438 0.315735)"/>
</clipPath>
</defs>
</svg>
