<svg width="26" height="25" viewBox="0 0 26 25" fill="none" xmlns="http://www.w3.org/2000/svg">
<g clip-path="url(#clip0_56_166)">
<path d="M25.6839 7.05475C25.3963 14.3081 25.0368 2.55556 24.5596 0.315735H24.2393C23.9844 1.44216 23.8145 2.56207 23.5988 3.6885C23.468 4.73028 24.0498 17.2251 23.1216 9.41177C22.9125 7.66679 23.5138 16.7759 22.8602 14.9788C21.8601 12.2441 22.8144 22.1801 23.272 23.5865C23.3831 23.9381 23.8602 24.179 24.3897 24.179H24.4093C24.9387 24.179 25.4093 23.9316 25.527 23.58C26.1872 21.542 25.7623 4.9777 25.6773 7.05475H25.6839Z" fill="#FF1B06"/>
<path d="M19.7751 10.8833C19.5202 15.2848 19.1476 8.01839 18.69 5.77856H18.3763C18.1279 6.90499 18.0495 12.9278 17.7553 7.51052C17.5789 4.32658 16.4415 20.4351 17.4351 23.5865C17.5462 23.9381 18.0037 24.179 18.5201 24.179H18.5397C19.0495 24.179 19.5136 23.9316 19.6247 23.58C20.2653 21.542 19.8927 8.79973 19.7751 10.8768V10.8833Z" fill="#FF1B06"/>
<path d="M13.8726 16.3461C13.3628 19.517 13.3432 13.4812 12.9575 11.2414H12.6961C12.4869 12.3678 12.1666 16.6912 12.1732 12.9734C12.1732 9.7829 11.0685 20.4351 11.9052 23.5865C11.9967 23.9381 12.3823 24.179 12.8203 24.179H12.8399C13.2713 24.179 13.6569 23.9316 13.7484 23.58C14.291 21.542 14.1995 14.2821 13.8726 16.3396V16.3461Z" fill="#FF1B06"/>
<path d="M7.36253 14.5165H7.10107C6.89191 15.6429 6.46051 18.8464 6.38207 17.7069C6.15984 14.523 5.47352 20.4286 6.31017 23.58C6.40168 23.9316 6.78733 24.1725 7.22526 24.1725H7.24487C7.67627 24.1725 8.06192 23.9251 8.15342 23.5735C8.69594 21.5355 8.58482 21.6722 8.27761 19.6147C8.06191 17.3619 7.74817 16.7498 7.36253 14.51V14.5165Z" fill="#FF1B06"/>
<path d="M2.42762 19.797C2.34918 20.9299 1.26415 19.0352 1.05498 17.9088H0.793529C0.407884 20.1486 0.590902 19.7384 0.368666 21.9913C0.061458 24.0553 0.388275 23.5539 0.643193 23.9837C0.826211 24.2962 1.13996 24.3157 1.57135 24.3157H1.59096C2.02236 24.3157 2.40801 24.0748 2.50605 23.7232C3.34271 20.5718 2.65639 16.6196 2.43415 19.8035L2.42762 19.797Z" fill="#FF1B06"/>
</g>
<defs>
<clipPath id="clip0_56_166">
<rect width="25.6552" height="24" fill="white" transform="translate(0.244385 0.315735)"/>
</clipPath>
</defs>
</svg>
