<svg width="27" height="25" viewBox="0 0 27 25" fill="none" xmlns="http://www.w3.org/2000/svg">
<g clip-path="url(#clip0_56_160)">
<path d="M26.4077 7.05475C26.1201 14.3081 25.7606 2.55556 25.2835 0.315735H24.9632C24.7083 1.44216 24.5383 2.56207 24.3226 3.6885C24.1919 4.73028 24.7737 17.2251 23.8455 9.41177C23.6363 7.66679 24.2377 16.7759 23.584 14.9788C22.584 12.2441 23.5383 22.1801 23.9958 23.5865C24.1069 23.9381 24.5841 24.179 25.1135 24.179H25.1332C25.6626 24.179 26.1332 23.9316 26.2509 23.58C26.911 21.542 26.4862 4.9777 26.4012 7.05475H26.4077Z" fill="#183132"/>
<path d="M20.499 10.8833C20.244 15.2848 19.8715 8.01839 19.4139 5.77856H19.1002C18.8518 6.90499 18.7734 12.9278 18.4792 7.51052C18.3027 4.32658 17.1654 20.4351 18.1589 23.5865C18.2701 23.9381 18.7276 24.179 19.244 24.179H19.2636C19.7734 24.179 20.2375 23.9316 20.3486 23.58C20.9892 21.542 20.6166 8.79973 20.499 10.8768V10.8833Z" fill="#1FB3FB"/>
<path d="M14.5965 16.3461C14.0867 19.517 14.0671 13.4812 13.6814 11.2414H13.42C13.2108 12.3678 12.8905 16.6912 12.8971 12.9734C12.8971 9.7829 11.7924 20.4351 12.6291 23.5865C12.7206 23.9381 13.1062 24.179 13.5442 24.179H13.5638C13.9952 24.179 14.3808 23.9316 14.4723 23.58C15.0148 21.542 14.9233 14.2821 14.5965 16.3396V16.3461Z" fill="#1FB3FB"/>
<path d="M8.0864 14.5165H7.82495C7.61579 15.6429 7.18439 18.8464 7.10595 17.7069C6.88371 14.523 6.1974 20.4286 7.03405 23.58C7.12556 23.9316 7.5112 24.1725 7.94914 24.1725H7.96875C8.40015 24.1725 8.78579 23.9251 8.8773 23.5735C9.41982 21.5355 9.3087 21.6722 9.00149 19.6147C8.78579 17.3619 8.47205 16.7498 8.0864 14.51V14.5165Z" fill="#1FB3FB"/>
<path d="M3.15149 19.797C3.07306 20.9299 1.98802 19.0352 1.77886 17.9088H1.51741C1.13176 20.1486 1.31478 19.7384 1.09254 21.9913C0.785335 24.0553 1.11215 23.5539 1.36707 23.9837C1.55009 24.2962 1.86383 24.3157 2.29523 24.3157H2.31484C2.74624 24.3157 3.13188 24.0748 3.22993 23.7232C4.06658 20.5718 3.38027 16.6196 3.15803 19.8035L3.15149 19.797Z" fill="#1FB3FB"/>
</g>
<defs>
<clipPath id="clip0_56_160">
<rect width="25.6552" height="24" fill="white" transform="translate(0.968262 0.315735)"/>
</clipPath>
</defs>
</svg>
