<svg width="26" height="24" viewBox="0 0 26 24" fill="none" xmlns="http://www.w3.org/2000/svg">
<path d="M22.865 12.1C22.975 11.91 25.285 11.91 24.015 11.61C23.875 11.58 25.575 11.38 25.525 11.25C25.465 11.07 22.495 11.13 22.355 11C22.125 10.77 24.675 10.41 24.345 10.41H9.85498L12.735 7.55002C12.855 7.43002 12.945 7.30002 13.005 7.14002C13.065 6.98002 12.815 7.11002 12.815 6.94002C12.815 6.77002 13.065 6.33002 13.005 6.17002C12.945 6.01002 12.185 6.66002 12.065 6.54002C11.995 6.47002 12.585 5.64002 12.505 5.59002C12.445 5.55002 12.385 5.52002 12.325 5.49002C12.175 5.43002 10.835 7.06002 10.675 7.06002C10.515 7.06002 11.525 5.43002 11.365 5.49002C11.215 5.55002 11.075 5.65002 10.955 5.76002L5.95498 10.76C5.84498 10.88 5.75498 11.02 5.69498 11.17C5.57498 11.47 5.57498 11.82 5.69498 12.12C5.75498 12.27 5.84498 12.41 5.95498 12.53L10.955 17.53C11.075 17.65 11.205 17.74 11.365 17.8C11.515 17.86 9.84498 15.78 10.005 15.78C10.165 15.78 12.175 17.87 12.325 17.8C12.475 17.74 12.615 17.64 12.735 17.53C12.855 17.41 11.815 16.27 11.885 16.11C11.945 15.96 13.105 16.8 13.105 16.64C13.105 16.48 13.075 16.31 13.005 16.16C12.945 16.01 11.765 14.79 11.645 14.68L9.85498 12.89H24.345C24.675 12.89 24.995 12.76 25.225 12.52C25.305 12.44 22.805 12.17 22.855 12.07L22.865 12.1Z" fill="#0F1512"/>
<path d="M2.41498 3.04001C2.18498 2.81001 2.18498 0.420013 1.85498 0.420013L1.73498 1.95001C1.56498 1.95001 1.52498 0.460013 1.37498 0.520013C1.22498 0.580013 1.15498 1.53001 1.04498 1.65001C0.81498 1.88001 0.60498 1.35001 0.60498 1.68001V21.68C0.60498 22.01 0.91498 20.92 1.14498 21.15C1.25498 21.26 1.20498 22.76 1.35498 22.82C1.51498 22.89 1.78498 21.29 1.95498 21.29C2.28498 21.29 2.50498 22.8 2.74498 22.56C2.98498 22.32 3.11498 19.65 3.11498 19.31V1.66001C3.11498 1.33001 2.66498 3.27001 2.42498 3.04001H2.41498Z" fill="#0F1512"/>
<path d="M0.684937 1.20001C0.744937 1.22001 0.794937 1.24001 0.854937 1.27001C0.994937 1.07001 1.02494 0.810006 0.954937 0.580006C0.924937 0.490006 0.874937 0.390006 0.794937 0.350006C0.824937 0.370006 0.814937 0.780006 0.794937 0.840006C0.774937 0.970006 0.704937 1.08001 0.684937 1.21001V1.20001Z" fill="#0F1512"/>
<path d="M0.794951 21.99C0.504951 22.03 0.494951 22.95 0.474951 23.14C0.464951 23.25 0.444951 23.37 0.474951 23.47C0.514951 23.58 0.614951 23.67 0.724951 23.66C0.804951 23.66 0.874951 23.59 0.914951 23.51C0.954951 23.43 0.964951 23.35 0.974951 23.27C0.994951 23.1 1.15495 21.95 0.794951 22V21.99Z" fill="#0F1512"/>
</svg>
