<svg width="24" height="14" viewBox="0 0 24 14" fill="none" xmlns="http://www.w3.org/2000/svg">
<g clip-path="url(#clip0_55_119)">
<path d="M22.8043 8.16307C22.4833 8.16307 22.1844 8.04461 21.9519 7.81846C21.7305 7.60307 21.5977 7.30154 21.5977 6.98923V3.96307L14.0589 11.3077C13.9482 11.4154 13.8154 11.5015 13.6715 11.5662C13.5276 11.6308 13.3726 11.6523 13.2065 11.6523C13.0405 11.6523 12.8966 11.62 12.7416 11.5662C12.5866 11.5123 12.4649 11.4154 12.3542 11.3077L8.41319 7.46307L2.07002 13.6662C9.11061 4.88923 1.53865 14.0108 1.21762 14.0108C0.896587 14.0108 4.22869 9.96154 3.99622 9.74615C3.77482 9.53077 -0.221494 13.0523 0.0109787 12.8477C8.856 4.57692 0.13275 12.2338 0.365222 12.0185L7.56079 5.01846C7.67149 4.91077 7.80434 4.82461 7.94825 4.76C8.09216 4.69538 8.24714 4.67384 8.41319 4.67384C8.57924 4.67384 8.72316 4.70615 8.87814 4.76C9.02205 4.81384 9.15489 4.91077 9.26559 5.01846L13.2065 8.86307L19.915 2.33692H16.8043C16.4833 2.33692 16.1844 2.21846 15.9519 1.9923C15.7305 1.77692 15.5977 1.47538 15.5977 1.16307C15.5977 0.850766 15.7195 0.559997 15.9519 0.333843C16.1733 0.118458 16.4833 -0.0107727 16.8043 -0.0107727H22.8043C22.9593 -0.0107727 23.1143 0.021535 23.2582 0.0861504C23.546 0.204612 23.7896 0.430766 23.9113 0.721535C23.9778 0.861535 23.9999 1.0123 24.011 1.16307V7C24.011 7.3123 23.8892 7.60307 23.6567 7.82923C23.4353 8.04461 23.1254 8.17384 22.8043 8.17384V8.16307Z" fill="#0E1411"/>
</g>
<defs>
<clipPath id="clip0_55_119">
<rect width="24" height="14" fill="white"/>
</clipPath>
</defs>
</svg>
