<svg width="27" height="19" viewBox="0 0 27 19" fill="none" xmlns="http://www.w3.org/2000/svg">
<g clip-path="url(#clip0_55_122)">
<path d="M8.83396 7.58955C8.83396 7.22423 4.262 7.06925 4.52769 6.81464C4.7823 6.56002 22.8044 7.96593 5.50186 6.40504H21.5424L18.3543 3.23899C18.0886 2.97331 17.9447 2.63013 17.9447 2.25375C17.9447 1.87737 18.0886 1.53419 18.3543 1.26851C18.6199 1.00283 18.9631 0.858917 19.3395 0.858917C19.7159 0.858917 20.0591 1.00283 20.3247 1.26851L25.8598 6.80357C26.048 7.00283 26.1808 7.24637 26.2362 7.51205C26.2915 7.77774 26.2583 8.05449 26.1476 8.3091C26.048 8.56371 25.8709 8.77405 25.6384 8.92903C25.417 9.08401 25.1402 9.1615 24.8745 9.1615H5.50186C14.8118 7.74453 4.7823 9.01759 4.52769 8.75191C4.27307 8.49729 8.83396 7.94379 8.83396 7.5674V7.58955Z" fill="#0C100D"/>
<path d="M4.25095 11.918C4.25095 12.2833 4.10704 12.1394 0.0110947 12.9254C4.16239 12.6818 18.9188 11.9844 0.985264 13.3349H17.0259L13.8377 16.501C13.572 16.7667 13.4281 17.1099 13.4281 17.4862C13.4281 17.8626 13.572 18.2058 13.8377 18.4715C14.1033 18.7372 14.4465 18.8811 14.8229 18.8811C15.1993 18.8811 15.5425 18.7372 15.8081 18.4715L21.3432 12.9364C21.5314 12.7372 21.6642 12.4936 21.7196 12.2279C21.7749 11.9623 21.7417 11.6855 21.631 11.4309C21.5314 11.1763 21.3543 10.9659 21.1218 10.811C20.9004 10.656 20.6236 10.5785 20.358 10.5785H0.985264C21.9631 11.4641 0.265707 10.7224 0.0110947 10.9881C-0.243518 11.2427 4.25095 11.5748 4.25095 11.9401V11.918Z" fill="#0C100D"/>
</g>
<defs>
<clipPath id="clip0_55_122">
<rect width="26.2472" height="18" fill="white" transform="translate(0 0.869995)"/>
</clipPath>
</defs>
</svg>
