<svg width="23" height="22" viewBox="0 0 23 22" fill="none" xmlns="http://www.w3.org/2000/svg">
<g clip-path="url(#clip0_55_126)">
<path d="M17.8323 5.98391C17.777 5.85118 17.6885 5.71845 17.589 5.6189L12.4678 0.497736C14.68 4.28054 11.9811 0.176971 11.6935 0.176971C11.406 0.176971 12.5231 1.70337 12.313 1.91352C12.2134 2.01307 10.7202 0.730013 10.6649 0.862743C10.6096 0.995473 10.5764 1.13926 10.5764 1.28305C10.5764 1.42685 12.2245 2.72096 12.2798 2.85369C12.3351 2.98642 10.7976 1.96883 10.8972 2.06837L14.1269 5.29814H5.27826C4.10581 5.29814 2.97761 5.76269 2.14805 6.59226C1.32955 7.42182 0.86499 8.55002 0.86499 9.72247V21.1926C1.25212 12.355 1.27424 14.8547 1.18575 21.9779C1.18575 22.2765 1.21894 19.0357 1.80516 18.9915C2.09274 18.9693 2.53518 22.188 2.74533 21.9779C2.95549 21.7677 1.8494 5.29814 3.0661 21.1926V9.72247C3.0661 9.13625 3.29837 8.57215 3.71869 8.16289C4.139 7.74258 4.69204 7.51031 5.27826 7.51031H14.1269L10.8972 10.7401C10.7423 10.8949 11.6493 10.5189 11.6051 10.7401C11.5608 10.9502 10.5653 11.7466 10.6538 11.9568C10.7423 12.1559 11.959 11.1272 12.136 11.2489C12.313 11.3705 11.4613 12.6425 11.6825 12.6425C11.9701 12.6425 12.2576 12.5209 12.4567 12.3107L17.5779 7.2006C17.6775 7.08999 17.7659 6.96832 17.8212 6.82453C17.9319 6.55907 17.9319 6.26043 17.8212 5.99497L17.8323 5.98391Z" fill="#0C100D"/>
<path d="M21.0289 13.2951C20.8409 11.2157 20.7192 6.60332 20.3984 13.096C20.3763 13.45 19.9228 12.5651 19.9228 12.189V1.10608C19.9228 0.79638 20.2436 2.31171 20.4427 2.11262C20.6418 1.91352 20.7192 0 21.0289 0C21.3054 0 21.3829 1.09502 21.5819 1.26094C21.8142 1.46003 22.135 0.774258 22.135 1.10608V12.189C22.135 12.4987 21.7479 11.3152 21.5488 11.5143C21.3497 11.7134 21.3386 13.2951 21.0289 13.2951Z" fill="#0C100D"/>
</g>
<defs>
<clipPath id="clip0_55_126">
<rect width="21.27" height="22" fill="white" transform="translate(0.86499)"/>
</clipPath>
</defs>
</svg>
