<svg width="39" height="16" viewBox="0 0 39 16" fill="none" xmlns="http://www.w3.org/2000/svg">
<g clip-path="url(#clip0_55_130)">
<path d="M13.9942 6.47326H5.18021L6.7482 4.84144C7.33026 4.23569 7.33026 3.41978 6.7482 2.80167C6.16615 2.19592 5.38215 2.19592 4.78822 2.80167L0.86824 6.88121C0.77321 6.98011 0.571272 7.19027 0.571272 7.38807C0.476243 7.69712 0.476243 8.10508 0.571272 8.41413C0.571272 8.61193 0.761332 8.82209 0.86824 8.92098L4.78822 13.0005C5.37027 13.6186 6.15427 13.6186 6.7482 13.0005C7.33026 12.3948 7.33026 11.5789 6.7482 10.9608L5.18021 9.32894H13.9942C14.4812 9.32894 12.8657 9.01988 12.5331 8.64901C12.3193 8.41413 13.6735 7.932 13.3765 7.90728C9.83667 7.54877 12.6994 6.99247 12.3668 6.98011C9.07643 6.79468 14.4456 6.48562 14.0061 6.48562L13.9942 6.47326ZM38.5 7.89492C38.5 7.48696 38.2981 7.07901 38.108 6.88121L34.188 2.80167C33.5941 2.19592 32.8101 2.19592 32.228 2.80167C31.6341 3.40742 31.6341 4.22333 32.228 4.84144L33.796 6.47326H24.982C29.2702 7.46224 24.1386 6.68342 23.8892 7.0172C23.711 7.25208 25.3621 7.56114 25.3621 7.90728C25.3621 8.19161 23.6635 8.42649 23.7823 8.63665C23.8417 8.73555 25.8848 8.63665 25.9798 8.72319C26.2768 9.03224 24.59 9.32894 24.982 9.32894H33.796L32.228 10.9608C31.6341 11.5789 31.6341 12.3824 32.228 13.0005C32.8101 13.6186 33.5941 13.6186 34.188 13.0005L38.108 8.92098C38.3099 8.71083 38.5 8.30287 38.5 7.89492ZM20.8601 13.6063V2.18356C20.8601 1.36765 20.2781 0.761902 19.4941 0.761902C18.7101 0.761902 18.128 1.36765 18.128 2.18356V13.8041C18.128 14.212 18.223 14.5211 18.52 14.8178C18.817 15.1268 19.1139 15.2257 19.5059 15.2257C20.1949 15.1268 20.872 14.4098 20.872 13.5939L20.8601 13.6063Z" fill="#0C100D"/>
</g>
<defs>
<clipPath id="clip0_55_130">
<rect width="38" height="14.4762" fill="white" transform="translate(0.5 0.761902)"/>
</clipPath>
</defs>
</svg>
