<svg width="32" height="18" viewBox="0 0 32 18" fill="none" xmlns="http://www.w3.org/2000/svg">
<g clip-path="url(#clip0_15_1061)">
<path d="M30.7995 0.610523C30.7995 0.610523 30.778 0.586698 30.7688 0.577763C30.4188 0.223362 29.9275 0 29.3841 0H22.3988C21.7202 0 21.1706 0.533091 21.1706 1.19126C21.1706 1.84944 21.7202 2.38253 22.3988 2.38253H27.2931C26.1724 3.41893 24.4898 4.71741 22.3558 5.61979C22.2698 5.65553 22.1839 5.69126 22.0979 5.72402C21.4715 5.97419 21.1706 6.67108 21.4285 7.27862C21.6251 7.74024 22.0825 8.01721 22.5646 8.01721C22.7212 8.01721 22.8778 7.98743 23.0313 7.92786C23.1357 7.88617 23.237 7.84447 23.3384 7.80278C25.6995 6.8051 27.5633 5.3994 28.8498 4.23494V8.73494C28.8498 9.39312 29.3994 9.92621 30.078 9.92621C30.7565 9.92621 31.3061 9.39312 31.3061 8.73494V1.86135C31.3061 1.37889 31.1158 0.941099 30.8057 0.610523H30.7995Z" fill="#0C100D"/>
<path d="M5.59739 8.4014C5.4193 8.54732 5.24429 8.70219 5.07541 8.86003C4.58721 9.31569 4.57186 10.0721 5.04471 10.5457C5.28728 10.7869 5.6066 10.909 5.929 10.909C6.25139 10.909 6.54308 10.7988 6.78258 10.5755C6.91461 10.4533 7.04971 10.3342 7.18788 10.2211C7.70678 9.79517 7.76819 9.04468 7.32912 8.54137C6.89004 8.04104 6.11629 7.9785 5.59739 8.40437V8.4014Z" fill="#0C100D"/>
<path d="M4.27398 11.5642C3.68446 11.2396 2.93527 11.4421 2.60059 12.0139C2.48699 12.2075 2.38259 12.3981 2.28127 12.5857C1.96808 13.1694 2.20451 13.8901 2.80631 14.1909C2.98747 14.2803 3.18091 14.3249 3.3682 14.3249C3.81342 14.3249 4.24328 14.0897 4.46128 13.6817C4.54725 13.5179 4.63937 13.3541 4.73762 13.1873C5.0723 12.6155 4.86351 11.8888 4.27398 11.5642Z" fill="#0C100D"/>
<path d="M14.824 6.50132C14.6705 6.47452 14.517 6.44474 14.3634 6.41198L14.2406 6.38815C13.5743 6.25414 12.9265 6.6681 12.7883 7.31436C12.6501 7.95764 13.0769 8.58901 13.7432 8.72303L13.8476 8.74388C14.0288 8.78259 14.2068 8.81535 14.3849 8.84811C14.4586 8.86003 14.5323 8.86896 14.606 8.86896C15.1894 8.86896 15.7052 8.46691 15.8127 7.88915C15.9324 7.24288 15.4903 6.62343 14.824 6.5043V6.50132Z" fill="#0C100D"/>
<path d="M18.7941 6.59961C18.6068 6.62344 18.4195 6.64428 18.2261 6.66215C17.5506 6.72172 17.0501 7.29948 17.1115 7.95467C17.1698 8.57413 17.7041 9.0417 18.3335 9.0417C18.3704 9.0417 18.4072 9.0417 18.4441 9.03575C18.6713 9.0149 18.8954 8.99107 19.1196 8.96427C19.792 8.8779 20.2648 8.27929 20.1758 7.62708C20.0867 6.97486 19.4665 6.51324 18.7972 6.60259L18.7941 6.59961Z" fill="#0C100D"/>
<path d="M10.0464 6.30774C9.81307 6.34943 9.57665 6.40304 9.34637 6.4626C8.69236 6.63533 8.30242 7.28755 8.4805 7.9219C8.62788 8.45201 9.1253 8.80343 9.66569 8.80343C9.77009 8.80343 9.87755 8.79152 9.98502 8.76174C10.1539 8.71707 10.3289 8.67835 10.5009 8.64857C11.1671 8.52647 11.6062 7.90403 11.4803 7.25777C11.3544 6.61151 10.7127 6.18265 10.0464 6.30774Z" fill="#0C100D"/>
<path d="M2.32114 15.3733C1.66713 15.2035 0.991635 15.5788 0.81662 16.2131C0.755211 16.4305 0.727578 16.5526 0.727578 16.5526C0.583267 17.1929 0.997776 17.8302 1.65792 17.9732C1.74696 17.994 1.83908 18.003 1.92812 18.003C2.49001 18.003 2.99663 17.6277 3.12559 17.0738C3.12559 17.0619 3.14708 16.9785 3.187 16.8355C3.36509 16.2012 2.97514 15.546 2.32114 15.3762V15.3733Z" fill="#0C100D"/>
</g>
<defs>
<clipPath id="clip0_15_1061">
<rect width="30.6" height="18" fill="white" transform="translate(0.700012)"/>
</clipPath>
</defs>
</svg>
