<svg width="35" height="22" viewBox="0 0 35 22" fill="none" xmlns="http://www.w3.org/2000/svg">
<g clip-path="url(#clip0_55_133)">
<path d="M15.7945 15.0631C16.2399 15.4925 16.8156 15.7127 17.4022 15.7127C17.9888 15.7127 18.5645 15.4925 19.0099 15.0631L29.5686 4.77878V10.2182C29.5686 10.5816 29.7207 10.9119 29.9596 11.1431C30.1986 11.3744 30.5136 9.02903 30.9047 9.02903C31.2632 9.02903 31.6216 11.4184 31.8715 11.1982C32.1431 10.956 30.8504 2.60961 32.3169 10.2182V2.07007C32.3169 1.05706 31.4696 0.231231 30.4267 0.231231H22.1167C26.8746 1.14514 21.2694 0.44044 21.0195 0.759759C20.8457 0.97998 22.3122 1.33233 22.3122 1.64064C22.3122 2.004 20.9 2.26827 21.1499 2.51051C21.3997 2.75275 26.2337 2.22422 22.1167 2.8959H27.6459L17.4131 12.8719L4.58409 0.363363C9.26597 6.37537 3.78025 -0.0770774 3.3566 -3.03495e-07C3.09589 0.0440437 7.2998 4.95495 7.09341 5.15315C6.82184 5.41742 5.46398 4.14014 2.86777 1.50851C2.62879 1.26627 5.15982 4.53654 2.65051 2.24625L15.8054 15.0631H15.7945Z" fill="#0C100D"/>
<path d="M34.2398 14.8428C33.0992 13.8188 31.5132 13.4444 30.1336 13.1471C29.0147 12.9269 27.8959 12.8058 26.777 12.7618C28.4933 13.3453 32.7624 14.5455 33.3816 16.2192C33.3816 16.3293 33.3816 16.4064 33.3164 16.5055C32.9797 16.968 32.4039 17.2432 31.8065 17.5075C29.3515 18.4545 26.701 18.7848 24.0396 19.049C20.8025 19.3353 17.5219 19.4014 14.263 19.2583C11.0585 19.1151 7.73448 18.8178 4.68203 18.003C3.76956 17.7387 2.74845 17.4084 2.02064 16.8579C-0.141059 15.3824 7.07185 13.0701 8.15813 12.7507C7.03926 12.7948 5.92039 12.9269 4.80152 13.1361C3.34591 13.4555 1.60785 13.8629 0.51071 15.0631C-0.314864 15.988 -0.0650192 17.3313 0.782281 18.1131C1.71648 19.038 2.82449 19.5225 3.98681 19.974C6.19196 20.7998 8.45143 21.2292 10.7109 21.5485C17.3589 22.3303 24.6805 22.1982 31.057 19.9519C33.1318 19.2362 36.5427 17.1772 34.2506 14.8208L34.2398 14.8428Z" fill="#0C100D"/>
</g>
<defs>
<clipPath id="clip0_55_133">
<rect width="35" height="22" fill="white"/>
</clipPath>
</defs>
</svg>
