<svg width="22" height="22" viewBox="0 0 22 22" fill="none" xmlns="http://www.w3.org/2000/svg">
<g clip-path="url(#clip0_55_137)">
<path d="M7.48002 8.705C7.68002 8.905 7.96002 9.025 8.24002 9.025C8.52002 9.025 8.80002 8.915 9.00002 8.705C9.20002 8.505 9.31003 8.225 9.31003 7.945C9.31003 7.665 9.20002 7.385 9.00002 7.185L2.21002 0.355004C6.44002 6.275 1.73002 0.0350037 1.44002 0.0350037C1.15002 0.0350037 4.14002 3.655 3.93002 3.855C3.73002 4.055 0.140025 0.935004 0.350025 1.125C9.85002 9.495 0.460025 1.695 0.670025 1.895L7.47002 8.705H7.48002ZM20.8 13.035C20.51 13.035 20.24 13.145 20.03 13.355C19.83 13.555 19.71 13.835 19.71 14.125V18.015L14.77 13.045C14.56 12.835 14.28 12.725 13.99 12.725C13.7 12.725 13.42 12.845 13.21 13.045C13 13.255 12.89 13.535 12.89 13.825C12.89 14.115 13.01 14.395 13.21 14.605L18.18 19.545H14.29C14 19.545 13.73 19.655 13.52 19.865C13.32 20.065 13.2 20.345 13.2 20.635C13.2 20.925 13.31 21.195 13.52 21.405C13.72 21.605 14 21.725 14.29 21.725H20.79C20.93 21.725 21.07 21.695 21.2 21.635C21.46 21.525 21.68 21.315 21.79 21.045C21.85 20.915 21.87 20.775 21.88 20.635V14.135C21.88 13.845 21.77 13.575 21.56 13.365C21.36 13.165 21.08 13.045 20.79 13.045L20.8 13.035ZM21.8 0.715004C21.69 0.455004 21.48 0.235004 21.21 0.125004C21.08 0.0650037 20.94 0.0450037 20.8 0.0350037H14.3C14.01 0.0350037 13.74 0.145004 13.53 0.355004C13.33 0.555004 13.21 0.835004 13.21 1.125C13.21 1.415 13.32 1.685 13.53 1.895C13.73 2.095 14.01 2.215 14.3 2.215H18.19L0.530025 19.855C0.430025 19.955 3.96002 16.945 3.91002 17.075C3.85002 17.205 0.320025 20.525 0.210025 20.625C-0.229975 21.035 0.120025 21.165 0.290025 21.045C1.51002 20.205 4.86002 16.875 4.96002 16.975C5.06002 17.075 1.11002 20.865 0.880025 21.635C0.840025 21.775 0.690024 22.275 1.30002 21.715C2.42002 20.695 3.71002 18.725 4.29002 18.505C4.42002 18.455 1.97002 21.495 2.07002 21.395L19.72 3.735V7.625C19.72 7.915 19.83 8.185 20.04 8.395C20.24 8.595 20.52 8.715 20.81 8.715C21.1 8.715 21.37 8.605 21.58 8.395C21.78 8.195 21.9 7.915 21.9 7.625V1.125C21.9 0.985004 21.87 0.845004 21.81 0.715004H21.8Z" fill="#0C100D"/>
</g>
<defs>
<clipPath id="clip0_55_137">
<rect width="21.88" height="21.93" fill="white" transform="translate(0 0.0350037)"/>
</clipPath>
</defs>
</svg>
