<svg width="33" height="22" viewBox="0 0 33 22" fill="none" xmlns="http://www.w3.org/2000/svg">
<g clip-path="url(#clip0_55_140)">
<path d="M31.58 10.82L26.27 5.53C25.79 5.05 25.01 5.05 24.52 5.53C24.04 6.01 24.04 6.79 24.52 7.27L28.07 10.81H25.45C23.71 10.81 22.06 11.61 20.98 12.98L17.86 16.93C17.76 17.06 17.55 17.02 17.51 16.85L13.58 0.73C13.42 0.0600004 12.5 -0.0399996 12.19 0.58L7.8 9.39C7.36 10.27 6.48 10.81 5.5 10.81H2.2C8.7 11.58 5.67 11.45 1.25 11.25C0.969996 11.24 4.91 12 4.61 12C-1.97 12.08 6.27 12.27 5.34 12.44C4.61 12.57 1.45 12.88 1.31 12.9C-1.96 13.48 1.85 13.27 2.19 13.27H5.5C7.41 13.27 9.15 12.19 10.01 10.48L12.05 6.38C12.13 6.21 12.38 6.24 12.42 6.42L16.05 21.27C16.2 21.87 16.97 22.04 17.36 21.55L22.93 14.48C23.54 13.71 24.47 13.26 25.45 13.26H28.04L24.49 16.8C24.01 17.28 24.01 18.06 24.49 18.54C24.73 18.78 25.05 18.9 25.36 18.9C25.67 18.9 25.99 18.78 26.23 18.54L31.57 13.22C32.23 12.56 32.23 11.48 31.57 10.81L31.58 10.82Z" fill="#0C100D"/>
</g>
<defs>
<clipPath id="clip0_55_140">
<rect width="32.08" height="21.68" fill="white" transform="translate(0 0.160004)"/>
</clipPath>
</defs>
</svg>
