<svg width="26" height="26" viewBox="0 0 26 26" fill="none" xmlns="http://www.w3.org/2000/svg">
<path d="M9.17339 9.09407L9.17095 9.09606L9.16863 9.09831L9.17339 9.09407ZM19.957 8.892C19.8816 8.81936 19.798 8.7558 19.7078 8.70262C19.5802 8.62751 19.4385 8.57937 19.2916 8.56118C19.1446 8.543 18.9954 8.55516 18.8533 8.5969C18.7113 8.63865 18.5792 8.70909 18.4654 8.80389C18.3517 8.89868 18.2585 9.01581 18.1918 9.14802C17.8186 9.88327 17.304 10.5376 16.6773 11.0735C16.7731 10.5335 16.8215 9.98626 16.8217 9.43789C16.8237 7.76967 16.3837 6.1307 15.5463 4.68787C14.7089 3.24504 13.5041 2.04987 12.0546 1.22406C11.895 1.13354 11.7149 1.08508 11.5314 1.08321C11.3478 1.08134 11.1668 1.12613 11.0053 1.21338C10.8439 1.30062 10.7072 1.42747 10.6082 1.582C10.5091 1.73654 10.451 1.9137 10.4392 2.09687C10.3785 3.12406 10.11 4.12824 9.64983 5.04859C9.18966 5.96893 8.54743 6.78628 7.76206 7.45109L7.51238 7.65422C6.69112 8.20681 5.96418 8.88803 5.35947 9.67171C4.41948 10.8559 3.76832 12.2428 3.45763 13.7225C3.14695 15.2021 3.18528 16.7338 3.56958 18.1961C3.95389 19.6584 4.67361 21.011 5.67165 22.1467C6.6697 23.2824 7.91863 24.1699 9.31939 24.7389C9.48386 24.8061 9.66234 24.8318 9.83909 24.8138C10.0158 24.7957 10.1854 24.7344 10.3329 24.6353C10.4803 24.5362 10.6011 24.4023 10.6846 24.2455C10.7681 24.0886 10.8117 23.9137 10.8116 23.736C10.8109 23.6211 10.7927 23.5069 10.7577 23.3975C10.5153 22.4864 10.4455 21.538 10.5519 20.6013C11.577 22.5348 13.2225 24.0673 15.2238 24.9526C15.4681 25.0619 15.7442 25.0766 15.9987 24.9939C17.5799 24.4835 19.0044 23.5774 20.1367 22.3615C21.269 21.1455 22.0716 19.6603 22.4683 18.0468C22.8649 16.4333 22.8424 14.7452 22.4029 13.1429C21.9633 11.5406 21.1214 10.0773 19.957 8.892ZM15.7268 22.7923C14.7825 22.3137 13.9495 21.6418 13.2819 20.8201C12.6143 19.9984 12.1272 19.0454 11.8521 18.0231C11.7681 17.6789 11.7031 17.3303 11.6574 16.9789C11.6265 16.7552 11.5264 16.5467 11.3711 16.3826C11.2159 16.2185 11.0132 16.107 10.7915 16.0638C10.7232 16.0503 10.6538 16.0436 10.5841 16.0437C10.3937 16.0436 10.2067 16.0938 10.0418 16.1891C9.87699 16.2844 9.74018 16.4214 9.64522 16.5865C8.74634 18.1368 8.2943 19.9058 8.33918 21.6974C7.54861 21.0827 6.88789 20.3172 6.39533 19.4453C5.90277 18.5734 5.58815 17.6124 5.46972 16.618C5.35129 15.6237 5.4314 14.6157 5.7054 13.6525C5.97941 12.6893 6.44186 11.79 7.06595 11.0069C7.53981 10.3913 8.11146 9.85776 8.75812 9.42736C8.78612 9.40929 8.81297 9.3895 8.83852 9.36811C8.83852 9.36811 9.15994 9.10218 9.17092 9.09609C10.7143 7.79063 11.8121 6.03623 12.3112 4.07734C13.4916 5.16851 14.2787 6.61887 14.5502 8.20323C14.8218 9.78758 14.5626 11.4173 13.813 12.8392C13.7139 13.029 13.6733 13.2438 13.6962 13.4566C13.7191 13.6694 13.8045 13.8707 13.9417 14.035C14.0789 14.1993 14.2616 14.3193 14.4669 14.3799C14.6722 14.4405 14.8908 14.4389 15.0952 14.3754C16.7546 13.8552 18.2149 12.8391 19.2794 11.4639C19.9191 12.4089 20.3374 13.4861 20.503 14.6152C20.6686 15.7443 20.5772 16.8962 20.2358 17.9851C19.8943 19.074 19.3115 20.0718 18.5308 20.9041C17.7501 21.7365 16.7916 22.3819 15.7268 22.7923L15.7268 22.7923Z" fill="#0C100D"/>
</svg>
